<svg version="1.1" viewBox="0 0 24 24" class="bob-core-components-icon">
    <g class="icons/_tint/boardportal-">
        <path class="secondarytint" d="M6.75 1a3.75 3.75 0 1 0 0 7.5 3.75 3.75 0 1 0 0-7.5z"/>
        <path d="M19 21.5H8c0-3.05 2.45-5.5 5.5-5.5s5.5 2.45 5.5 5.5z" class="tertiarytint"/>
        <path d="M5.5 12C4.1 12 3 13.1 3 14.5S4.1 17 5.5 17 8 15.9 8 14.5 6.9 12 5.5 12zm0 4c-.85 0-1.5-.65-1.5-1.5S4.65 13 5.5 13s1.5.65 1.5 1.5S6.35 16 5.5 16zM18 17c1.4 0 2.5-1.1 2.5-2.5S19.4 12 18 12s-2.5 1.1-2.5 2.5S16.6 17 18 17zm0-4c.85 0 1.5.65 1.5 1.5S18.85 16 18 16s-1.5-.65-1.5-1.5.65-1.5 1.5-1.5zm-6 2c1.8 0 3.25-1.45 3.25-3.25S13.8 8.5 12 8.5s-3.25 1.45-3.25 3.25S10.2 15 12 15zm0-5.5c1.25 0 2.25 1 2.25 2.25S13.25 14 12 14s-2.25-1-2.25-2.25 1-2.25 2.25-2.25zM22.5 22h-1c0-1.95-1.55-3.5-3.5-3.5-.35 0-.7.05-1 .15.65.95 1 2.1 1 3.35h-1c0-1.1-.35-2.1-.95-2.9-.2-.25-.4-.5-.65-.75C14.5 17.5 13.3 17 12 17c-1.4 0-2.7.6-3.6 1.55-.25.25-.45.5-.6.8C7.3 20.1 7 21 7 22H6c0-1.15.35-2.25.95-3.2-.45-.2-.95-.3-1.45-.3C3.55 18.5 2 20.05 2 22H1c0-2.5 2-4.5 4.5-4.5.75 0 1.45.2 2.05.5 1.1-1.2 2.7-2 4.45-2 1.7 0 3.2.7 4.3 1.85.5-.2 1.1-.35 1.7-.35 2.5 0 4.5 2 4.5 4.5zM5.25 10c.95 0 1.85-.3 2.55-.85L9 9.5l-.35-1.2c.55-.7.85-1.6.85-2.55C9.5 3.4 7.6 1.5 5.25 1.5S1 3.4 1 5.75 2.9 10 5.25 10zm0-7.5c1.8 0 3.25 1.45 3.25 3.25S7.05 9 5.25 9 2 7.55 2 5.75 3.45 2.5 5.25 2.5z"
              class="primarytint"/>
    </g>
</svg>