<svg version="1.1" viewBox="0 0 24 24" class="bob-core-components-icon"><g class="icons/_tint/document"><path d="M13.5 18.5h-3c-.85 0-1.5-.65-1.5-1.5V6.5c0-.85.65-1.5 1.5-1.5H15v12c0 .85-.65 1.5-1.5 1.5z" class="secondarytint"/><path d="M19.75 1c-.55 0-1.05.3-1.4.7 0 .05-.05.05-.05.1-.2.3-.3.6-.3.95V5h3.5V2.75c0-.95-.8-1.75-1.75-1.75z" class="tertiarytint"/><path d="M18.5 2H5.85C4.25 2 3 3.3 3 4.85v14.3C3 20.75 4.3 22 5.85 22h8.3c1.6 0 2.85-1.3 2.85-2.85V7h4V4.5C21 3.1 19.9 2 18.5 2zm-2.1 1.15c-.25.35-.4.85-.4 1.35v14.65c0 1-.85 1.85-1.85 1.85h-8.3c-1 0-1.85-.85-1.85-1.85V4.85C4 3.85 4.85 3 5.85 3H16.5c0 .05-.05.1-.1.15zM20 6h-3V4.5c0-.85.65-1.5 1.5-1.5s1.5.65 1.5 1.5V6zm-5.5 1.5c0 .3-.2.5-.5.5H6c-.3 0-.5-.2-.5-.5S5.7 7 6 7h8c.3 0 .5.2.5.5zm-3 6c0 .3-.2.5-.5.5H6c-.3 0-.5-.2-.5-.5s.2-.5.5-.5h5c.3 0 .5.2.5.5zm3-2c0 .3-.2.5-.5.5H6c-.3 0-.5-.2-.5-.5s.2-.5.5-.5h8c.3 0 .5.2.5.5zm0-2c0 .3-.2.5-.5.5H6c-.3 0-.5-.2-.5-.5S5.7 9 6 9h8c.3 0 .5.2.5.5z" class="primarytint"/></g></svg>