<svg version="1.1" viewBox="0 0 24 24" class="bob-core-components-icon">
    <g class="icons/_tint/eye-closed">
    <path class="primarytint" d="M11.999 6.5c3.842 0 7.277 2.064 8.947 5.27l.035.088a.48.48 0 0 1-.037.36 8.985 8.985 0 0 1-1.061 1.57 10.685 10.685 0 0 1-4.313 3.072c-1.16.414-2.364.64-3.571.64-3.813 0-7.267-2.08-8.944-5.288l-.035-.087a.48.48 0 0 1 .035-.358C4.725 8.562 8.159 6.5 11.999 6.5zm-7.115 6.628c1.603 2.009 4.09 3.277 6.806 3.367l.309.005a9.52 9.52 0 0 0 3.191-.572c1.479-.563 2.82-1.528 3.874-2.767l.022-.026a29.893 29.893 0 0 1-14.15.005zM11.999 7.5c-3.23 0-6.135 1.627-7.714 4.201l-.122.206.474.125a28.881 28.881 0 0 0 14.246.123l.539-.138.411-.11-.117-.202c-1.477-2.41-4.116-3.99-7.096-4.185l-.31-.015z"/>
    </g>
</svg>