<svg version="1.1" viewBox="0 0 24 24" class="bob-core-components-icon"><g class="icons/_tint/gratz"><path class="secondarytint" d="M7.5 2.5a2 2 0 1 0 0 4 2 2 0 1 0 0-4z"/><path class="tertiarytint" d="M18.5 11a4.5 4.5 0 1 0 0 9 4.5 4.5 0 1 0 0-9z"/><path d="M18 12c-2.75 0-5 2.25-5 5s2.25 5 5 5 5-2.25 5-5-2.25-5-5-5zm0 9c-2.2 0-4-1.8-4-4s1.8-4 4-4 4 1.8 4 4-1.8 4-4 4zm-2-5.5c0-.3.2-.5.5-.5s.5.2.5.5-.2.5-.5.5-.5-.2-.5-.5zm3 0c0-.3.2-.5.5-.5s.5.2.5.5-.2.5-.5.5-.5-.2-.5-.5zm-6 6c0 .3-.2.5-.5.5h-8c-.3 0-.5-.2-.5-.5s.2-.5.5-.5H6v-8.7l-1.25.65c-.1.05-.15.05-.25.05-.2 0-.35-.1-.45-.25-.15-.25-.05-.55.2-.65l15.5-8c.25-.15.55-.05.65.2.15.25.05.55-.2.65l-1.75.9c0 .05.05.1.05.15v4c0 .3-.2.5-.5.5s-.5-.2-.5-.5V6.35L7 11.75V21h2v-4.5c0-.3.2-.5.5-.5h2c.3 0 .5.2.5.5s-.2.5-.5.5H10v4h2.5c.3 0 .5.2.5.5zM6.5 8C7.9 8 9 6.9 9 5.5S7.9 3 6.5 3 4 4.1 4 5.5 5.1 8 6.5 8zm0-4C7.35 4 8 4.65 8 5.5S7.35 7 6.5 7 5 6.35 5 5.5 5.65 4 6.5 4zM6 2v-.5c0-.3.2-.5.5-.5s.5.2.5.5V2c0 .3-.2.5-.5.5S6 2.3 6 2zm.5 6.5c.3 0 .5.2.5.5v.5c0 .3-.2.5-.5.5S6 9.8 6 9.5V9c0-.3.2-.5.5-.5zm2 4c.3 0 .5.2.5.5v.5c0 .3-.2.5-.5.5s-.5-.2-.5-.5V13c0-.3.2-.5.5-.5zm2 0c.3 0 .5.2.5.5v.5c0 .3-.2.5-.5.5s-.5-.2-.5-.5V13c0-.3.2-.5.5-.5zm2 0c.3 0 .5.2.5.5v.5c0 .3-.2.5-.5.5s-.5-.2-.5-.5V13c0-.3.2-.5.5-.5zM8.6 3.4c-.2-.2-.2-.5 0-.7l.35-.35c.2-.2.5-.2.7 0 .2.2.2.5 0 .7l-.35.35c-.1.1-.25.15-.35.15a.54.54 0 0 1-.35-.15zM4.4 8.35l-.35.35c-.1.1-.25.15-.35.15a.54.54 0 0 1-.35-.15c-.2-.2-.2-.5 0-.7l.35-.35c.2-.2.5-.2.7 0 .2.2.15.5 0 .7zM10 5h.5c.3 0 .5.2.5.5s-.2.5-.5.5H10c-.3 0-.5-.2-.5-.5s.2-.5.5-.5zM3 6h-.5c-.3 0-.5-.2-.5-.5s.2-.5.5-.5H3c.3 0 .5.2.5.5S3.3 6 3 6zm6.35 1.6l.35.35c.2.2.2.5 0 .7-.1.1-.25.15-.35.15A.54.54 0 0 1 9 8.65l-.35-.35c-.2-.2-.2-.5 0-.7.2-.2.5-.15.7 0zM3.3 3.05c-.2-.2-.2-.5 0-.7.2-.2.5-.2.7 0l.35.35c.2.2.2.5 0 .7-.1.1-.25.15-.35.15a.54.54 0 0 1-.35-.15l-.35-.35zM20.5 17c0 1.4-1.1 2.5-2.5 2.5s-2.5-1.1-2.5-2.5h5z" class="primarytint"/></g></svg>