<svg version="1.1" viewBox="0 0 24 24" class="bob-core-components-icon"><g class="icons/heart-outline"><path d="M7.765 2c1.6 0 3.1.7 4.2 1.8 1.1-1.15 2.6-1.8 4.2-1.8h.6c2.45.25 4.6 2.15 5.4 4.75 2.1 7-6.9 12.6-9.5 14.5-.2.15-.45.25-.7.25-.25 0-.5-.1-.65-.2-2.6-1.9-11.6-7.5-9.5-14.5.75-2.6 2.9-4.5 5.4-4.75.2-.05.35-.05.55-.05zm0 1h-.45c-2.05.2-3.9 1.85-4.55 4.05-1.75 5.75 5.35 10.75 8.4 12.9.25.2.5.35.7.5.05.05.05.05.1.05s.05 0 .1-.05c.2-.15.45-.3.7-.5 3-2.15 10.15-7.15 8.4-12.9-.65-2.25-2.5-3.85-4.55-4.05h-.45c-1.3 0-2.55.55-3.5 1.5l-.7.7-.7-.7c-.95-.95-2.2-1.5-3.5-1.5z" class="primarytint"/></g></svg>