<svg version="1.1" viewBox="0 0 24 24" class="bob-core-components-icon"><g class="icons/_tint/homenav-"><path d="M2.263 9.595a.516.516 0 0 0-.215.67.47.47 0 0 0 .638.225l1.219-.64v9.775c0 .76.59 1.375 1.314 1.375h4.875v-6.5h3.809V21h4.875c.724 0 1.314-.615 1.314-1.375V9.85l1.214.635a.471.471 0 0 0 .214.055c.176 0 .343-.1.429-.275a.509.509 0 0 0-.214-.67L11.999 4.5 2.263 9.595zM19.14 19.62c0 .21-.162.38-.362.38h-3.923v-6a.49.49 0 0 0-.476-.5h-4.76a.49.49 0 0 0-.477.5v6H5.219c-.2 0-.362-.17-.362-.38V9.345L12 5.61l7.14 3.735V19.62z" class="primarytint"/></g></svg>