<svg version="1.1" viewBox="0 0 24 24" class="bob-core-components-icon"><g class="icons/_tint/house-"><path class="secondarytint" d="M7.5 2.5a2 2 0 1 0 0 4 2 2 0 1 0 0-4z"/><path d="M21.95 12.05c-1.4-1.35-3.65-1.35-5 0l-.3.3c-.6.05-1.2.35-1.7.8a2.75 2.75 0 0 0 0 4c.85.85 2.15 1.05 3.2.6 1.25.5 2.75.25 3.8-.8 1.4-1.35 1.4-3.55 0-4.9z" class="tertiarytint"/><path d="M11 12c0 .3-.2.5-.5.5s-.5-.2-.5-.5v-.5c0-.3.2-.5.5-.5s.5.2.5.5v.5zm1.5-.5v.5c0 .3.2.5.5.5s.5-.2.5-.5v-.5c0-.3-.2-.5-.5-.5s-.5.2-.5.5zm-4.5 2c-.3 0-.5.2-.5.5v.5c0 .3.2.5.5.5s.5-.2.5-.5V14c0-.3-.2-.5-.5-.5zm9.5 5.85V21h.5c.3 0 .5.2.5.5s-.2.5-.5.5H4.5c-.3 0-.5-.2-.5-.5s.2-.5.5-.5H5V9.5c0-.3.2-.5.5-.5h9l-.75-1H10c-.3 0-.5-.2-.5-.5s.2-.5.5-.5h4c.15 0 .3.05.4.2l1.5 2c0 .05.05.05.05.1v.05c0 .05.05.1.05.15v2c0 .3-.2.5-.5.5s-.5-.2-.5-.5V10H6v11h3v-4c0-.3.2-.5.5-.5h2c.3 0 .5.2.5.5s-.2.5-.5.5H10V21h2v-1.5c0-.3.2-.5.5-.5s.5.2.5.5V21h3.5v-1.6c-.25.05-.5.1-.75.1-1.8 0-3.25-1.45-3.25-3.25 0-1.65 1.25-3.05 2.85-3.2.75-.95 1.85-1.55 3.15-1.55 2.2 0 4 1.8 4 4s-1.8 4-4 4c-.35 0-.7-.05-1-.15zm-.85-1.05l.4-.15.4.15c.35.15.7.2 1.1.2 1.65 0 3-1.35 3-3s-1.35-3-3-3c-.9 0-1.8.4-2.35 1.15l-.25.3-.45.05c-1.15.15-2 1.1-2 2.25 0 1.25 1 2.25 2.25 2.25.3 0 .6-.05.9-.2zm-6.15-4.8c-.3 0-.5.2-.5.5v.5c0 .3.2.5.5.5s.5-.2.5-.5V14c0-.3-.2-.5-.5-.5zm-2-2c0-.3-.2-.5-.5-.5s-.5.2-.5.5v.5c0 .3.2.5.5.5s.5-.2.5-.5v-.5zM4 5.5C4 4.1 5.1 3 6.5 3S9 4.1 9 5.5 7.9 8 6.5 8 4 6.9 4 5.5zm1 0C5 6.35 5.65 7 6.5 7S8 6.35 8 5.5 7.35 4 6.5 4 5 4.65 5 5.5zm1.5-3c.3 0 .5-.2.5-.5v-.5c0-.3-.2-.5-.5-.5s-.5.2-.5.5V2c0 .3.2.5.5.5zm2.45 1.05c.15 0 .25-.05.35-.15l.35-.35c.2-.2.2-.5 0-.7-.2-.2-.5-.2-.7 0l-.35.35c-.2.2-.2.5 0 .7.1.1.25.15.35.15zM4.05 8.7l.35-.35c.2-.2.2-.5 0-.7-.2-.2-.5-.2-.7 0L3.35 8c-.2.2-.2.5 0 .7.1.1.25.15.35.15.1 0 .25-.05.35-.15zM3.5 5.5c0-.3-.2-.5-.5-.5h-.5c-.3 0-.5.2-.5.5s.2.5.5.5H3c.3 0 .5-.2.5-.5zm.15-2.1c.1.1.25.15.35.15.1 0 .25-.05.35-.15.2-.2.2-.5 0-.7L4 2.35c-.2-.2-.5-.2-.7 0-.2.2-.2.5 0 .7l.35.35z" class="primarytint"/></g></svg>