<svg version="1.1" viewBox="0 0 24 24" class="bob-core-components-icon"><g class="icons/_tint/location-"><path class="tertiarytint" d="M13 5.5a3.5 3.5 0 1 0 0 7 3.5 3.5 0 1 0 0-7z"/><path class="secondarytint" d="M12 20.5a3 1.25 0 1 0 0 2.5 3 1.25 0 1 0 0-2.5z"/><path d="M12 6c-2.2 0-4 1.8-4 4s1.8 4 4 4 4-1.8 4-4-1.8-4-4-4zm0 7c-1.65 0-3-1.35-3-3s1.35-3 3-3 3 1.35 3 3-1.35 3-3 3zm0-11c-4.4 0-8 3.6-8 8 0 4.75 6 10.55 7.6 11.85.1.1.25.15.4.15.15 0 .3-.05.4-.15C14 20.55 20 14.75 20 10c0-4.4-3.6-8-8-8zm0 18.9c-1.6-1.3-7-6.75-7-10.9 0-3.85 3.15-7 7-7s7 3.15 7 7c0 4.15-5.4 9.6-7 10.9z" class="primarytint"/></g></svg>