<svg version="1.1" class="bob-core-components-icon" viewBox="0 0 60 60">
    <g class="icons/_tint/logo-bob-horizontal">
        <polygon class="primarytint"
                 points="24.1,38.6 11.3,38.6 11.3,25.8 18.9,25.8 18.9,24.6 10,24.6 10,39.9 25.3,39.9 25.3,31 24.1,31 	"/>
        <path class="primarytint" d="M20.2,29.7h5.1v-5.1h-5.1V29.7z M21.5,25.8h2.6v2.6h-2.6V25.8z"/>
        <polygon class="primarytint" points="26.6,28.4 26.6,29.7 30.5,29.7 30.5,19.4 20.2,19.4 20.2,23.3 21.5,23.3 21.5,20.7 29.2,20.7
		29.2,28.4 	"/>
        <path class="primarytint" d="M29.2,39.9h3.2c1.5,0,2.4-1,2.4-2.3c0-0.6-0.4-1.4-1.4-1.7c0.8-0.3,1-0.9,1-1.4c0-1.3-0.9-2.1-2.2-2.1h-3V39.9
		z M30.8,33.9H32c0.5,0,0.7,0.3,0.7,0.8c0,0.4-0.3,0.8-0.7,0.8h-1.2V33.9z M30.8,36.7h1.5c0.6,0,0.8,0.5,0.8,0.9
		c0,0.4-0.3,0.9-0.8,0.9h-1.5L30.8,36.7L30.8,36.7L30.8,36.7z"/>
        <path class="primarytint" d="M43.1,36.2c0-2.1-1.7-3.8-3.8-3.8c-2.1,0-3.8,1.7-3.8,3.8c0,2.1,1.7,3.8,3.8,3.8C41.5,40,43.1,38.3,43.1,36.2z
		 M39.4,38.4c-1.2,0-2.2-1-2.2-2.2c0-1.2,1-2.2,2.2-2.2c1.2,0,2.2,1,2.2,2.2C41.6,37.4,40.6,38.4,39.4,38.4z"/>
        <path class="primarytint" d="M48.6,35.9c0.8-0.3,1-0.9,1-1.4c0-1.3-0.9-2.1-2.2-2.1h-3v7.4h3.2c1.5,0,2.4-1,2.4-2.3
		C50,37,49.6,36.2,48.6,35.9z M46,33.9h1.2c0.5,0,0.7,0.3,0.7,0.8c0,0.4-0.3,0.8-0.7,0.8H46V33.9z M47.5,38.5H46v-1.8h1.5
		c0.6,0,0.8,0.5,0.8,0.9C48.3,38,48.1,38.5,47.5,38.5z"/>
    </g>
</svg>