<svg version="1.1" viewBox="0 0 24 24" class="bob-core-components-icon"><g class="icons/_tint/prebuy-"><path d="M5.5 7.5C5.5 8.35 4.85 9 4 9s-1.5-.65-1.5-1.5S3.15 6 4 6s1.5.65 1.5 1.5zM19 6c-.85 0-1.5.65-1.5 1.5S18.15 9 19 9s1.5-.65 1.5-1.5S19.85 6 19 6zm-7.5-4.5c-.85 0-1.5.65-1.5 1.5s.65 1.5 1.5 1.5S13 3.85 13 3s-.65-1.5-1.5-1.5z" class="secondarytint"/><path d="M18.5 20h-11c-.3 0-.5-.2-.5-.5V17c0-.3.2-.5.5-.5h11c.3 0 .5.2.5.5v2.5c0 .3-.2.5-.5.5z" class="tertiarytint"/><path d="M5.5 22h12c.3 0 .5-.2.5-.5v-3c0-.3-.2-.5-.5-.5h-12c-.3 0-.5.2-.5.5v3c0 .3.2.5.5.5zm.5-3h11v2H6v-2zm5.5-11l3.15 5.5.3.5c.15.25.5.35.75.15l.45-.35L18 12.4l-.8 3.6H5.8l-.75-3.6 1.85 1.4.45.35c.25.2.6.1.75-.15l.3-.5L11.5 8m0-2l-4 7-4-3 1.4 6.6c.05.25.25.4.5.4h12.2c.25 0 .45-.15.5-.4l1.4-6.6-4 3-4-7zm8.75 2c.4 0 .75.35.75.75s-.35.75-.75.75-.75-.35-.75-.75.35-.75.75-.75m0-1c-1.1 0-1.95 1-1.7 2.15.15.65.65 1.15 1.3 1.3C21 10.7 22 9.85 22 8.75 22 7.8 21.2 7 20.25 7zM2.75 8c.4 0 .75.35.75.75s-.35.75-.75.75S2 9.15 2 8.75 2.35 8 2.75 8m0-1C1.65 7 .8 8 1.05 9.15c.15.65.65 1.15 1.3 1.3 1.15.25 2.15-.6 2.15-1.7C4.5 7.8 3.7 7 2.75 7zm8.75-3.5c.55 0 1 .45 1 1s-.45 1-1 1-1-.45-1-1 .45-1 1-1m0-1c-1.25 0-2.25 1.15-1.95 2.45.15.7.75 1.3 1.45 1.45 1.3.3 2.45-.7 2.45-1.95.05-1.05-.85-1.95-1.95-1.95z" class="primarytint"/></g></svg>