<svg version="1.1" viewBox="0 0 24 24" class="bob-core-components-icon"><g class="icons/_tint/profile"><path class="secondarytint" d="M13.5 1a4.5 4.5 0 1 0 0 9 4.5 4.5 0 1 0 0-9z"/><path d="M19.161 22c1.65 0 2.8-1.85 2.2-3.6-1.25-3.75-4.4-6.4-8.1-6.4-3.7 0-6.85 2.65-8.1 6.4-.6 1.75.55 3.6 2.2 3.6h11.8z" class="tertiarytint"/><path d="M11.65 11c2.6-.05 4.8-2.25 4.85-4.85.1-2.85-2.2-5.15-5-5.15-2.75 0-5 2.25-5 5 0 2.8 2.3 5.1 5.15 5zm-.15-9c2.2 0 4 1.8 4 4 0 2.45-2.25 4.4-4.8 3.9-1.55-.3-2.8-1.55-3.1-3.1C7.1 4.25 9.05 2 11.5 2zM21 21.5c0 .3-.2.5-.5.5s-.5-.2-.5-.5c0-4.7-3.8-8.5-8.5-8.5S3 16.8 3 21.5c0 .3-.2.5-.5.5s-.5-.2-.5-.5c0-5.25 4.25-9.5 9.5-9.5s9.5 4.25 9.5 9.5z" class="primarytint"/></g></svg>