<svg version="1.1" viewBox="0 0 24 24" class="bob-core-components-icon"><g class="icons/_tint/salehouse-"><path d="M18.05 22H3.95c-.5 0-.95-.45-.95-.95v-7.6c0-.5.45-.95.95-.95h14.1c.5 0 .95.45.95.95v7.6c0 .5-.45.95-.95.95z" class="secondarytint"/><path d="M5 8V4.85c0-.5.4-.85.85-.85h1.3c.5 0 .85.4.85.85V6.5" class="tertiarytint"/><path d="M5.97 7V3.5c0-.3.2-.5.5-.5h3c.3 0 .5.2.5.5v2c0 .3-.2.5-.5.5s-.5-.2-.5-.5V4h-2v3c0 .3-.2.5-.5.5s-.5-.2-.5-.5zm16.7 3.55l-10.2-5.1-10.2 5.1c-.25.1-.35.4-.2.65.1.25.4.35.65.2l9.75-4.85 9.8 4.9c.05.05.1.05.2.05.2 0 .35-.1.45-.3.1-.2 0-.5-.25-.65z" class="primarytint"/><path d="M20.2 11.5H18v-1c0-.3-.2-.5-.5-.5s-.5.2-.5.5v1H8v-1c0-.3-.2-.5-.5-.5s-.5.2-.5.5v1H4.8c-.45 0-.8.35-.8.8v8.9c0 .45.35.8.8.8h15.4c.45 0 .8-.35.8-.8v-8.9c0-.45-.35-.8-.8-.8zM20 21H5v-8.5h2c0 .3.2.5.5.5s.5-.2.5-.5h9c0 .3.2.5.5.5s.5-.2.5-.5h2V21zM6.95 17.8c0 .2.15.4.45.4.25 0 .45-.1.45-.35 0-.05 0-.2-.35-.3l-.45-.2c-.8-.25-.95-.8-.95-1.15 0-.7.55-1.2 1.3-1.2.7 0 1.25.45 1.25 1.2h-.9c0-.2-.1-.35-.4-.35-.25 0-.4.1-.4.3 0 .05 0 .2.35.3l.4.15c.95.3 1 .9 1 1.2 0 .85-.75 1.2-1.35 1.2-.8 0-1.35-.5-1.35-1.2h.95zm4.425.25h-1.15l-.3.9h-.95l1.35-3.9h.95l1.35 3.9h-.95l-.3-.9zm-.9-.8h.65l-.35-1.3-.3 1.3zm2.575 1.7v-3.9h.9v3.05h1.1v.85h-2zm4.9-2.65c-.2-.25-.45-.4-.75-.4-.55 0-1 .5-1 1.15 0 .6.45 1.15 1 1.15.45 0 .75-.15.85-.5h-1V17h2c0 1.5-.75 2.1-1.8 2.1s-1.9-.9-1.9-2 .85-2 1.9-2c.6 0 1.1.25 1.45.7l-.75.5z" class="primarytint"/></g></svg>