<svg version="1.1" viewBox="0 0 24 24" class="bob-core-components-icon"><g class="icons/_tint/search-"><g transform="translate(2 1)" class="Søk"><path class="secondarytint" d="M9.25 0a7.75 7.75 0 1 0 0 15.5 7.75 7.75 0 1 0 0-15.5z"/><path d="M20 20c-.7.7-1.8.7-2.45 0l-3.5-3.55L16.5 14l3.5 3.55c.65.65.65 1.75 0 2.45z" class="tertiarytint"/><path d="M18.8 17.45l-3.5-3.55c.85-1.3 1.35-2.9 1.35-4.6 0-4.55-3.7-8.3-8.3-8.3C3.75 1 0 4.75 0 9.35s3.75 8.35 8.35 8.35c1.2 0 2.3-.25 3.35-.7l3.8 3.8c.45.45 1.05.7 1.65.7.6 0 1.2-.25 1.65-.7.95-.9.95-2.4 0-3.35zm-7.8-1.2c-.8.3-1.7.5-2.65.5-4.05 0-7.4-3.3-7.4-7.4 0-4.1 3.3-7.4 7.4-7.4 4.1 0 7.4 3.3 7.4 7.4 0 1.7-.55 3.25-1.55 4.5-.85 1.05-1.95 1.9-3.2 2.4zm7.15 3.9c-.25.25-.6.4-1 .4s-.75-.15-1-.4l-3.6-3.6c.8-.5 1.55-1.1 2.15-1.8l3.4 3.45c.6.5.6 1.4.05 1.95z" class="primarytint"/></g></g></svg>