<svg version="1.1" viewBox="0 0 24 24" class="bob-core-components-icon"><g class="icons/_tint/sliders"><path d="M15 18c0 1.7-1.3 3-3 3s-3-1.3-3-3 1.3-3 3-3 3 1.3 3 3z" class="secondarytint"/><path d="M18.5 12c-.85 0-1.5.65-1.5 1.5s.65 1.5 1.5 1.5 1.5-.65 1.5-1.5-.65-1.5-1.5-1.5zm-9-5C8.65 7 8 7.65 8 8.5S8.65 10 9.5 10 11 9.35 11 8.5 10.35 7 9.5 7z" class="tertiarytint"/><path d="M11.5 15a2.5 2.5 0 0 1 2.45 2h5.55a.5.5 0 1 1 0 1h-5.55a2.5 2.5 0 0 1-4.9 0H4.5a.5.5 0 1 1 0-1h4.55a2.5 2.5 0 0 1 2.45-2zm0 1a1.5 1.5 0 1 0 0 3 1.5 1.5 0 0 0 0-3zm6-6a2.5 2.5 0 1 1-2.45 3H4.5a.5.5 0 1 1 0-1h10.55a2.5 2.5 0 0 1 2.45-2zm0 1a1.5 1.5 0 1 0 0 3 1.5 1.5 0 0 0 0-3zm-9-6a2.5 2.5 0 0 1 2.45 2h8.55a.5.5 0 1 1 0 1h-8.55a2.5 2.5 0 0 1-4.9 0H4.5a.5.5 0 0 1 0-1h1.55A2.5 2.5 0 0 1 8.5 5zm0 1a1.5 1.5 0 1 0 0 3 1.5 1.5 0 0 0 0-3z" class="primarytint"/></g></svg>