<svg version="1.1" viewBox="0 0 24 24" class="bob-core-components-icon"><g class="icons/_tint/trash"><path d="M16.25 17.75c-.15 0-.25-.05-.35-.15L7.4 9.1c-.2-.2-.2-.5 0-.7.2-.2.5-.2.7 0l8.5 8.5c.2.2.2.5 0 .7-.1.1-.2.15-.35.15z" class="secondarytint"/><path d="M18.5 2.5h-13s-2 0-2 2.5v1h17V5c0-2.5-2-2.5-2-2.5z" class="tertiarytint"/><path d="M17.8 3h-3.85c-.25-1.15-1.25-2-2.45-2-1.2 0-2.2.85-2.45 2H5.2C3.4 3 2 4.45 2 6.2v1.3h1.55l.75 11.3c.1 1.8 1.65 3.2 3.55 3.2h7.25c1.9 0 3.45-1.4 3.55-3.2l.8-11.3H21V6.2C21 4.45 19.55 3 17.8 3zm-6.3-1c.65 0 1.2.4 1.4 1h-2.8c.2-.6.75-1 1.4-1zm6.2 16.75C17.6 20 16.5 21 15.15 21h-7.3c-1.35 0-2.5-1-2.55-2.25L4.55 7.5h13.9l-.75 11.25zM20 6.5H3v-.3C3 5 4 4 5.2 4h12.6C19 4 20 5 20 6.2v.3zM6.9 17.4l3.9-3.9-3.9-3.9c-.2-.2-.2-.5 0-.7.2-.2.5-.2.7 0l3.9 3.9 3.9-3.9c.2-.2.5-.2.7 0 .2.2.2.5 0 .7l-3.9 3.9 3.9 3.9c.2.2.2.5 0 .7-.1.1-.25.15-.35.15a.54.54 0 0 1-.35-.15l-3.9-3.9-3.9 3.9c-.1.1-.25.15-.35.15a.54.54 0 0 1-.35-.15c-.2-.2-.2-.5 0-.7z" class="primarytint"/></g></svg>