<svg version="1.1" viewBox="0 0 24 24" class="bob-core-components-icon"><g class="icons/_tint/exclaim-"><path d="M11.5 1c5.8 0 10.45 4.65 10.55 10.5.05 5.556-4.446 10.241-9.968 10.539l-.282.011h-.25c-2.172 0-4.166-.669-5.855-1.796L5.4 20.05l-2.8 1.4c-.05.05-.15.05-.2.05-.275 0-.508-.252-.43-.525L2 20.9l1.35-2.8C1.7 16.05.8 13.4 1.05 10.5 1.5 5.55 5.5 1.55 10.4 1.05c.4-.05.75-.05 1.1-.05zm0 15c-.55 0-1 .45-1 1s.45 1 1 1 1-.45 1-1-.45-1-1-1zm0-11c-.3 0-.5.2-.5.5v9c0 .267.158.454.404.493L11.5 15c.3 0 .5-.2.5-.5v-9c0-.267-.158-.454-.404-.493L11.5 5z" class="primarytint"/></g></svg>