<svg version="1.1" viewBox="0 0 24 24" class="bob-core-components-icon">
    <g class="icons/_tint/eye">
        <path class="secondarytint" d="M19.5 10.5a2 2 0 1 0 0 4 2 2 0 1 0 0-4z"/>
        <path class="tertiarytint" d="M9.5 5a5.5 5.5 0 1 0 0 11 5.5 5.5 0 1 0 0-11z"/>
        <path d="M11.999 6.5c3.815 0 7.227 2.064 8.885 5.27l.035.088a.484.484 0 0 1-.037.36 8.988 8.988 0 0 1-1.054 1.57 10.614 10.614 0 0 1-4.283 3.072 10.49 10.49 0 0 1-3.546.64c-3.787 0-7.218-2.08-8.884-5.288l-.034-.087a.483.483 0 0 1 .034-.358C4.775 8.562 8.185 6.5 12 6.5zM12 8c-2.218 0-4 1.782-4 4 0 2.205 1.803 4 4 4a4.08 4.08 0 0 0 1.42-.266 4.38 4.38 0 0 0 1.752-1.318A3.81 3.81 0 0 0 16 12c0-2.218-1.782-4-4-4zm-3.002-.004l-.248.088a8.744 8.744 0 0 0-4.413 3.617l-.168.287.169.29c1.06 1.736 2.723 3.048 4.667 3.72A4.99 4.99 0 0 1 7 12c0-1.642.783-3.094 1.998-4.004zm6.004 0l.084.064A4.986 4.986 0 0 1 17 12a4.81 4.81 0 0 1-1.047 3.04c-.29.36-.624.683-.992.96l.207-.072c1.468-.563 2.8-1.528 3.847-2.767.363-.435.676-.9.936-1.394l-.124.222-.165-.284c-1.056-1.735-2.71-3.041-4.66-3.708zM12 10c1.108 0 2 .892 2 2 0 .46-.149.878-.419 1.216-.23.284-.527.514-.865.649-.216.08-.46.135-.716.135-1.095 0-2-.892-2-2s.892-2 2-2zm0 1c-.556 0-1 .444-1 1 0 .55.452 1 1 1 .116 0 .24-.024.345-.064a1.15 1.15 0 0 0 .455-.344c.13-.164.2-.363.2-.592 0-.556-.444-1-1-1z" class="primarytint"/>
    </g>
</svg>