<svg version="1.1" viewBox="0 0 24 24" class="bob-core-components-icon"><g class="icons/_tint/findhome"><path class="secondarytint" d="M7.5 2.5a2 2 0 1 0 0 4 2 2 0 1 0 0-4z"/><path class="tertiarytint" d="M18.25 11a3.75 3.75 0 1 0 0 7.5 3.75 3.75 0 1 0 0-7.5z"/><path d="M6.5 8C7.9 8 9 6.9 9 5.5S7.9 3 6.5 3 4 4.1 4 5.5 5.1 8 6.5 8zm0-4C7.35 4 8 4.65 8 5.5S7.35 7 6.5 7 5 6.35 5 5.5 5.65 4 6.5 4zM4.05 8.7c-.1.1-.25.15-.35.15a.54.54 0 0 1-.35-.15c-.2-.2-.2-.5 0-.7l.35-.35c.2-.2.5-.2.7 0 .2.2.2.5 0 .7l-.35.35zM3 6h-.5c-.3 0-.5-.2-.5-.5s.2-.5.5-.5H3c.3 0 .5.2.5.5S3.3 6 3 6zm.3-2.95c-.2-.2-.2-.5 0-.7.2-.2.5-.2.7 0l.35.35c.2.2.2.5 0 .7-.1.1-.25.15-.35.15a.54.54 0 0 1-.35-.15l-.35-.35zm5.3.35c-.2-.2-.2-.5 0-.7l.35-.35c.2-.2.5-.2.7 0 .2.2.2.5 0 .7l-.35.35c-.1.1-.25.15-.35.15a.54.54 0 0 1-.35-.15zM6 2v-.5c0-.3.2-.5.5-.5s.5.2.5.5V2c0 .3-.2.5-.5.5S6 2.3 6 2zm2.5 12v.5c0 .3-.2.5-.5.5s-.5-.2-.5-.5V14c0-.3.2-.5.5-.5s.5.2.5.5zm2.5 0v.5c0 .3-.2.5-.5.5s-.5-.2-.5-.5V14c0-.3.2-.5.5-.5s.5.2.5.5zm0-2c0 .3-.2.5-.5.5s-.5-.2-.5-.5v-.5c0-.3.2-.5.5-.5s.5.2.5.5v.5zm-2.5 0c0 .3-.2.5-.5.5s-.5-.2-.5-.5v-.5c0-.3.2-.5.5-.5s.5.2.5.5v.5zm10 9.5c0 .3-.2.5-.5.5H4.5c-.3 0-.5-.2-.5-.5s.2-.5.5-.5H5V8.5c0-.3.2-.5.5-.5h9l-.75-1H10.5c-.3 0-.5-.2-.5-.5s.2-.5.5-.5H14c.15 0 .3.05.4.2l1.5 2c0 .05.05.05.05.1v.05c0 .05.05.1.05.15v2c0 .3-.2.5-.5.5s-.5-.2-.5-.5V9H6v12h3v-4.5c0-.3.2-.5.5-.5h1c.3 0 .5.2.5.5s-.2.5-.5.5H10v4h2v-1.5c0-.3.2-.5.5-.5s.5.2.5.5V21h5c.3 0 .5.2.5.5zm3.65-1.6l-1.85-1.85c.45-.65.7-1.45.7-2.3 0-2.35-1.9-4.25-4.25-4.25s-4.25 1.9-4.25 4.25S14.4 20 16.75 20c.6 0 1.2-.15 1.75-.35l1.95 2c.25.25.55.35.85.35.3 0 .6-.1.85-.35.45-.5.45-1.25 0-1.75zm-3.5-1.5c-.25.2-.6.35-.9.45-.3.1-.65.15-1 .15-1.8 0-3.25-1.45-3.25-3.25s1.45-3.25 3.25-3.25a3.244 3.244 0 0 1 2.85 4.8c-.15.3-.35.55-.6.75-.1.15-.25.25-.35.35zm2.8 2.55c-.05.05-.1.05-.15.05-.05 0-.1 0-.15-.05l-1.8-1.85c.15-.1.25-.2.35-.3l1.75 1.8c.1.1.1.25 0 .35zm-8.45-10c.3 0 .5.2.5.5v.5c0 .3-.2.5-.5.5s-.5-.2-.5-.5v-.5c0-.25.2-.5.5-.5z" class="primarytint"/></g></svg>