<svg version="1.1" viewBox="0 0 24 24" class="bob-core-components-icon"><g class="icons/_tint/membercard"><path class="secondarytint" d="M15.75 4.5a4.75 4.75 0 1 0 0 9.5 4.75 4.75 0 1 0 0-9.5z"/><path d="M3.5 16.5v2.7c0 .45.35.8.8.8h17.9c.45 0 .8-.35.8-.8v-2.7H3.5z" class="tertiarytint"/><path d="M21.9 5H2.6c-.35 0-.6.25-.6.6v12.85c0 .3.25.6.6.6h19.35c.3 0 .6-.25.6-.6V5.6c-.05-.35-.3-.6-.65-.6zm-.4 13H3v-2h18.5v2zm0-3H3V6h18.5v9zm-5.75-4.5c.95 0 1.75-.8 1.75-1.75S16.7 7 15.75 7 14 7.8 14 8.75s.8 1.75 1.75 1.75zm0-2.5c.4 0 .75.35.75.75s-.35.75-.75.75-.75-.35-.75-.75.35-.75.75-.75zM4.5 9c0-.3.2-.5.5-.5h4c.3 0 .5.2.5.5s-.2.5-.5.5H5c-.3 0-.5-.2-.5-.5zm0 2c0-.3.2-.5.5-.5h4c.3 0 .5.2.5.5s-.2.5-.5.5H5c-.3 0-.5-.2-.5-.5zm9.05 3h-1c.15-1.7 1.55-3 3.25-3s3.1 1.3 3.25 3h-1c-.15-1.1-1.05-2-2.2-2-1.15 0-2.2.9-2.3 2z" class="primarytint"/></g></svg>