<svg version="1.1" viewBox="0 0 24 24" class="bob-core-components-icon"><g class="icons/_tint/piggybank-"><path class="secondarytint" d="M11 1a2.5 2.5 0 1 0 0 5 2.5 2.5 0 1 0 0-5z"/><path class="tertiarytint" d="M16 9.5a1 1 0 1 0 0 2 1 1 0 1 0 0-2z"/><path d="M14.05 22h-.65c-.5 0-.9-.3-1.05-.75l-.7-2.15c0-.05-.05-.1-.1-.1H8c-.05 0-.1.05-.1.1l-.35 1.95c-.05.55-.5.95-1.05.95h-.55c-.5 0-.9-.3-1.05-.8l-1.25-3.85s0-.05-.05-.05C3 16.85 1 15.2 1 12c0-3.7 3.6-6.3 3.7-6.4.2-.15.55-.15.7.1.15.2.15.55-.1.7C5.3 6.4 2 8.8 2 12c0 2.7 1.65 4.15 2.2 4.5.2.15.35.35.4.55l1.25 3.85c0 .05.05.1.1.1h.55c.05 0 .1-.05.1-.1l.35-1.95C7 18.4 7.45 18 8 18h3.55c.5 0 .9.3 1.05.75l.7 2.15c0 .05.05.1.1.1h.65c.05 0 .1-.05.1-.1l1.25-3.3c.15-.35.4-.6.8-.7l2.9-.35c.05 0 .05-.05.1-.05l.7-1.4c.2-.4.55-.6 1-.6.05 0 .1-.05.1-.1v-2.75c0-.05-.05-.1-.1-.1h-.1c-.35 0-.65-.15-.85-.4L18.25 9c-.15-.2-.25-.45-.25-.7V5.75c0-.05-.05-.1-.05-.1s-.05-.05-.1 0l-1 .3c-.05 0-.05 0-.05.05l-.6.9c-.3.4-.8.6-1.3.45L13.85 7a.5.5 0 0 1-.3-.65.5.5 0 0 1 .65-.3l1.05.35c.05 0 .1 0 .15-.05l.6-.9c.15-.2.35-.4.6-.45l1-.3c.35-.1.7-.05 1 .15.3.2.45.55.45.9V8.3c0 .05 0 .05.05.05l1.7 2.1c0 .05.05.05.1.05h.1c.6 0 1.1.5 1.1 1.1v2.75c0 .6-.5 1.1-1.1 1.1-.05 0-.1.05-.1.05l-.7 1.4c-.15.3-.4.5-.75.6l-2.9.35c-.05 0-.05.05-.1.05l-1.25 3.3c-.25.5-.65.8-1.15.8zM9.5 2.5c-1.1 0-2 .9-2 2s.9 2 2 2 2-.9 2-2-.9-2-2-2m0-1c1.65 0 3 1.35 3 3s-1.35 3-3 3-3-1.35-3-3 1.35-3 3-3zm5.75 8.5c-.4 0-.75.35-.75.75s.35.75.75.75.75-.35.75-.75-.35-.75-.75-.75z" class="primarytint"/></g></svg>