<svg version="1.1" viewBox="0 0 24 24" class="bob-core-components-icon"><g class="icons/_tint/question-"><path d="M12.5 1c5.8 0 10.45 4.65 10.55 10.5.05 5.65-4.6 10.4-10.25 10.55h-.25c-2.3 0-4.4-.75-6.15-2l-2.8 1.4c-.05.05-.15.05-.2.05-.3 0-.55-.3-.4-.6l1.35-2.8c-1.65-2.05-2.55-4.7-2.3-7.6.45-4.95 4.45-8.95 9.35-9.45.4-.05.75-.05 1.1-.05zm-.406 15.047c-.55 0-1 .45-1 1s.45 1 1 1 1-.45 1-1-.45-1-1-1zm.7-11c-1.4-.2-2.65.25-3.6 1.05-.25.2-.25.55-.05.75.15.2.45.2.65.05.75-.65 1.8-1 2.9-.8 1.45.25 2.65 1.45 2.85 2.9.3 2-1.1 3.75-2.95 4-.15.05-.35.05-.5.05-.15 0-.35-.05-.5-.05v1.55c0 .3.2.5.5.5s.5-.2.5-.5v-.55c2.45-.25 4.3-2.5 3.95-5.1-.25-1.95-1.85-3.5-3.75-3.85z" class="primarytint"/></g></svg>