<svg version="1.1" viewBox="0 0 24 24" class="bob-core-components-icon"><g class="icons/_tint/salesign-"><path d="M19.2 7H17V6c0-.3-.2-.5-.5-.5s-.5.2-.5.5v1H7V6c0-.3-.2-.5-.5-.5S6 5.7 6 6v1H3.8c-.45 0-.8.35-.8.8v9.4c0 .45.35.8.8.8h15.4c.45 0 .8-.35.8-.8V7.8c0-.45-.35-.8-.8-.8zM19 17H4V8h2c0 .3.2.5.5.5S7 8.3 7 8h9c0 .3.2.5.5.5s.5-.2.5-.5h2v9zM5.9 13.8c0 .2.15.4.45.4.25 0 .45-.1.45-.35 0-.05 0-.2-.35-.3l-.45-.2c-.8-.25-.95-.8-.95-1.15 0-.7.55-1.2 1.3-1.2.7 0 1.25.45 1.25 1.2h-.9c0-.2-.1-.35-.4-.35-.25 0-.4.1-.4.3 0 .05 0 .2.35.3l.4.15c.95.3 1 .9 1 1.2 0 .85-.75 1.2-1.35 1.2-.8 0-1.35-.5-1.35-1.2h.95zm4.425.25h-1.15l-.3.9h-.95l1.35-3.9h.95l1.35 3.9h-.95l-.3-.9zm-.9-.8h.65l-.35-1.3-.3 1.3zM12 14.95v-3.9h.9v3.05H14v.85h-2zm4.9-2.65c-.2-.25-.45-.4-.75-.4-.55 0-1 .5-1 1.15 0 .6.45 1.15 1 1.15.45 0 .75-.15.85-.5h-1V13h2c0 1.5-.75 2.1-1.8 2.1s-1.9-.9-1.9-2 .85-2 1.9-2c.6 0 1.1.25 1.45.7l-.75.5z" class="primarytint"/></g></svg>