<svg version="1.1" viewBox="0 0 24 24" class="bob-core-components-icon"><g class="icons/_tint/signature"><path d="M13.5 15h-3c-.85 0-1.5-.65-1.5-1.5v-7c0-.85.65-1.5 1.5-1.5H15v8.5c0 .85-.65 1.5-1.5 1.5z" class="secondarytint"/><path d="M19.75 1c-.55 0-1.05.3-1.4.7 0 .05-.05.05-.05.1-.2.3-.3.6-.3.95V5h3.5V2.75c0-.95-.8-1.75-1.75-1.75z" class="tertiarytint"/><path d="M14.5 6.5c0 .3-.2.5-.5.5H6c-.3 0-.5-.2-.5-.5S5.7 6 6 6h8c.3 0 .5.2.5.5zM11 13c.3 0 .5-.2.5-.5s-.2-.5-.5-.5H6c-.3 0-.5.2-.5.5s.2.5.5.5h5zm3.5-2.5c0-.3-.2-.5-.5-.5H6c-.3 0-.5.2-.5.5s.2.5.5.5h8c.3 0 .5-.2.5-.5zM14 8H6c-.3 0-.5.2-.5.5s.2.5.5.5h8c.3 0 .5-.2.5-.5S14.3 8 14 8zm-8.15 9.65l.5.5c.05.05.35.05.6-.15l.15-.15-.25-.25c-.3-.3-.45-.65-.45-1.05s.15-.8.45-1.05l.1-.1c.6-.6 1.55-.6 2.1 0l.1.1c.3.3.45.65.4 1.05 0 .4-.2.75-.5 1l-.45.35.05.05c.25.25.75.3 1 .15l.2-.1c.7-.35 1.55-.3 1.95.15l.5.5c.2.2.2.5 0 .7-.05.1-.15.15-.3.15s-.25-.05-.35-.15l-.5-.5c-.1-.1-.45-.15-.8.05l-.25.1c-.7.35-1.65.2-2.2-.35l-.1-.1-.25.2c-.65.5-1.5.55-1.95.1l-.5-.5c-.2-.2-.2-.5 0-.7.2-.2.55-.2.75 0zM7.4 16.5c0 .15.05.25.15.35l.35.35.5-.45c.1-.1.15-.2.15-.3 0-.1-.05-.2-.15-.3l-.1-.1a.54.54 0 0 0-.35-.15c-.1 0-.25.05-.35.15l-.1.1c-.05.1-.1.2-.1.35zm14.9-4.45l-3.2 3.85c-.2.2-.5.25-.7.05-.2-.2-.25-.5-.05-.7l2.55-3.05-.4-.3-5.55 6.6-.25.25c-.05.05-.1.05-.15.1l-1.45.5c-.25.1-.55-.15-.5-.4l.2-1.55c0-.05.05-.1.05-.15l.2-.3 5.55-6.65.65-.75.5-.55c.45-.55 1.35-.6 1.85-.05.45.45.45 1.25 0 1.75l-.45.5 1.15.85zm-2.55-.8l-.4-.3-5.1 6.1.4.3 5.1-6.1zm1.1-1.7c-.1-.1-.25-.05-.35.05l-.5.55.4.3.5-.55c.05-.1.05-.25-.05-.35zM16.8 20.2c-.4 1.05-1.45 1.8-2.65 1.8h-8.3C4.3 22 3 20.7 3 19.15V4.85C3 3.25 4.3 2 5.85 2H18.5C19.9 2 21 3.1 21 4.5V7h-4v2.5c0 .3-.2.5-.5.5s-.5-.2-.5-.5v-5c0-.5.15-1 .4-1.4.05-.05.05-.1.1-.15H5.85C4.85 2.95 4 3.8 4 4.8v14.3c0 1 .85 1.85 1.85 1.85h8.3c.8 0 1.45-.5 1.7-1.2.1-.2.25-.3.45-.3.4.05.65.4.5.75zM17 6h3V4.5c0-.9-.85-1.65-1.8-1.45-.7.1-1.2.8-1.2 1.5V6z" class="primarytint"/></g></svg>