<svg version="1.0" xmlns="http://www.w3.org/2000/svg"
 width="1280.000000pt" height="853.000000pt" viewBox="0 0 1280.000000 853.000000"
 preserveAspectRatio="xMidYMid slice">
<g transform="translate(0.000000,853.000000) scale(0.100000,-0.100000)"
fill="#000000" stroke="none">
<path d="M8161 8501 c-52 -48 -40 -120 24 -147 72 -30 162 -7 190 47 21 40 19
54 -16 94 -30 34 -34 35 -99 35 -61 0 -71 -3 -99 -29z"/>
<path d="M5638 8448 c-58 -21 -21 -92 60 -116 57 -17 96 -15 123 7 l24 19 -21
29 c-36 50 -131 81 -186 61z"/>
<path d="M3573 8265 c-61 -26 -29 -79 62 -104 78 -22 185 -3 185 33 0 25 -57
64 -110 75 -66 14 -98 13 -137 -4z"/>
<path d="M9531 8247 c-13 -6 -29 -20 -35 -30 -9 -15 -5 -23 21 -47 38 -34 89
-50 163 -50 61 0 123 25 128 52 5 24 -39 62 -86 76 -51 16 -161 15 -191 -1z"/>
<path d="M10415 8246 c-43 -19 -66 -49 -72 -94 -5 -35 -1 -44 29 -78 32 -34
41 -38 95 -42 90 -6 148 30 160 102 15 91 -110 157 -212 112z"/>
<path d="M6733 8219 c-96 -27 -76 -161 28 -189 75 -20 139 19 139 85 0 71 -88
126 -167 104z"/>
<path d="M1155 8177 c-84 -40 -132 -111 -99 -148 21 -23 25 -18 -59 -57 -83
-38 -160 -114 -199 -194 -41 -84 -34 -89 21 -16 55 72 96 110 150 137 136 69
359 44 441 -49 40 -45 81 -64 122 -55 31 7 68 48 68 75 0 31 -40 69 -83 80
-23 6 -70 19 -104 30 -34 11 -102 25 -152 31 l-91 12 61 57 c51 48 60 61 57
86 -3 26 -7 29 -43 32 -26 1 -58 -6 -90 -21z"/>
<path d="M8862 8178 c-56 -28 -31 -110 48 -160 28 -17 50 -34 50 -38 0 -3 -7
-15 -15 -26 -40 -52 4 -113 98 -133 85 -20 177 20 177 75 0 29 -43 80 -75 88
-21 5 -25 12 -25 42 0 19 -6 47 -14 62 -38 73 -174 123 -244 90z"/>
<path d="M5963 8140 c-12 -5 -26 -18 -32 -29 -38 -69 39 -163 134 -165 57 -1
85 24 85 75 0 83 -107 151 -187 119z"/>
<path d="M2550 8122 c-24 -12 -38 -28 -46 -52 -9 -26 -21 -38 -51 -51 -75 -32
-101 -94 -67 -160 15 -31 66 -59 104 -59 23 0 24 -6 5 -40 -40 -70 6 -150 85
-150 52 0 76 13 96 52 32 61 -7 133 -78 144 -43 7 -44 10 -21 43 9 13 19 38
22 55 4 17 13 32 21 33 68 9 96 18 116 38 47 47 24 112 -50 146 -52 23 -91 24
-136 1z"/>
<path d="M4790 8110 c-38 -38 -15 -90 40 -90 54 0 80 59 42 93 -25 23 -58 21
-82 -3z"/>
<path d="M11493 8035 c-17 -7 -37 -24 -44 -36 -10 -20 -8 -25 17 -45 l28 -23
-17 -36 c-22 -47 -21 -77 3 -108 41 -52 122 -56 194 -8 87 58 86 186 -2 206
-19 4 -32 15 -39 35 -10 28 -15 30 -60 30 -26 -1 -62 -7 -80 -15z"/>
<path d="M4909 8022 c-64 -52 8 -152 109 -152 103 0 125 107 32 155 -41 21
-112 19 -141 -3z"/>
<path d="M12218 8011 c-101 -33 -158 -120 -108 -166 59 -53 224 11 245 96 13
54 -63 93 -137 70z"/>
<path d="M5221 7953 c-30 -24 -23 -64 15 -90 15 -10 46 -38 70 -62 40 -39 48
-43 80 -38 45 7 63 23 82 67 7 19 21 43 29 52 24 27 9 51 -26 43 -20 -4 -39 1
-65 16 -53 31 -153 38 -185 12z"/>
<path d="M8800 7923 c-26 -10 -60 -46 -60 -64 0 -24 38 -49 73 -49 50 0 107
41 107 78 0 13 -63 42 -87 41 -10 0 -25 -3 -33 -6z"/>
<path d="M3482 7898 c-15 -15 -15 -41 -1 -55 9 -9 2 -13 -25 -18 -38 -8 -57
-29 -48 -55 15 -47 125 -120 183 -120 40 0 62 21 54 53 -7 28 -61 81 -101 99
-33 15 -30 26 8 36 36 9 54 32 45 56 -8 19 -96 23 -115 4z"/>
<path d="M7349 7821 c-17 -18 -29 -40 -29 -55 0 -19 -7 -29 -25 -36 -14 -5
-28 -17 -31 -25 -10 -24 24 -65 70 -85 59 -26 60 -30 24 -60 -23 -19 -30 -32
-25 -45 16 -40 196 11 205 58 3 17 -2 21 -48 31 -18 4 -28 15 -36 41 -10 32
-9 40 11 63 30 38 36 58 24 89 -23 60 -91 72 -140 24z"/>
<path d="M1049 7777 c-31 -17 -50 -36 -64 -66 -17 -35 -27 -44 -61 -52 -22 -6
-54 -22 -70 -35 -25 -21 -26 -24 -7 -19 30 8 35 -7 18 -48 -19 -46 -7 -80 37
-107 65 -40 170 -12 201 53 9 19 17 42 17 51 0 25 23 19 88 -24 58 -39 101
-99 102 -141 1 -27 40 32 40 60 0 42 -57 119 -117 158 -29 20 -53 39 -53 42 1
3 7 17 15 31 23 40 18 76 -11 99 -35 27 -80 27 -135 -2z"/>
<path d="M5497 7782 c-40 -44 -6 -106 54 -100 47 4 71 46 49 86 -20 35 -77 43
-103 14z"/>
<path d="M7965 7791 c-11 -5 -28 -19 -37 -30 -11 -13 -30 -21 -47 -21 -39 0
-93 -45 -89 -74 4 -30 62 -34 99 -7 35 26 41 26 65 0 51 -56 141 -75 188 -38
45 36 28 102 -40 148 -37 25 -107 36 -139 22z"/>
<path d="M12404 7762 c-54 -26 -72 -67 -50 -111 22 -41 64 -61 128 -61 124 0
169 94 78 161 -38 29 -107 33 -156 11z"/>
<path d="M4177 7759 c-42 -16 -33 -51 15 -63 71 -18 164 22 131 55 -16 16
-111 21 -146 8z"/>
<path d="M10235 7741 c-114 -51 -131 -185 -29 -227 129 -54 281 77 214 184
-37 59 -112 77 -185 43z"/>
<path d="M4580 7715 c-25 -14 -50 -25 -57 -25 -17 0 -33 -33 -33 -69 0 -70
123 -152 202 -136 78 16 136 86 124 149 -6 33 -42 74 -83 95 -36 19 -104 12
-153 -14z"/>
<path d="M11503 7679 c-38 -11 -66 -48 -57 -73 19 -49 168 -69 222 -29 37 28
36 62 -5 85 -38 23 -116 31 -160 17z"/>
<path d="M1980 7599 c-38 -23 -69 -57 -70 -76 0 -16 53 -17 83 -2 36 19 77 62
77 81 0 25 -45 24 -90 -3z"/>
<path d="M5641 7563 c-21 -38 35 -92 111 -108 21 -4 30 -14 38 -44 12 -47 37
-70 82 -77 40 -7 92 15 108 45 20 39 12 91 -21 123 -29 30 -33 31 -94 25 -50
-5 -66 -3 -76 9 -35 43 -129 60 -148 27z"/>
<path d="M730 7527 c0 -112 84 -207 226 -253 68 -23 72 -29 40 -63 -32 -34
-31 -65 3 -69 37 -6 71 7 97 35 30 33 49 25 74 -29 63 -138 -37 -174 -228 -83
-129 61 -215 168 -232 289 l-7 51 -17 -40 c-38 -84 -2 -201 89 -290 65 -64
150 -105 243 -119 46 -6 72 -15 72 -23 0 -7 9 -17 20 -23 32 -17 98 6 142 50
42 42 48 74 18 90 -13 7 -20 21 -20 43 -1 18 -10 57 -21 87 -11 30 -22 62 -25
70 -3 10 9 23 33 37 42 23 93 93 57 78 -33 -14 -118 -35 -141 -35 -12 0 -54
17 -93 37 -54 28 -86 38 -135 41 -76 5 -119 35 -165 116 l-30 51 0 -48z"/>
<path d="M7170 7472 c-39 -6 -45 -10 -48 -34 -4 -33 16 -45 90 -54 44 -5 62
-2 95 15 51 25 60 38 40 58 -17 17 -109 25 -177 15z"/>
<path d="M11499 7455 c-66 -21 -109 -64 -109 -108 0 -48 28 -67 101 -67 128 0
227 112 146 165 -35 22 -88 26 -138 10z"/>
<path d="M4289 7375 c-15 -8 -29 -22 -33 -31 -5 -12 -15 -15 -39 -11 -17 2
-44 0 -60 -5 -71 -25 -58 -128 16 -128 15 0 41 13 61 30 l34 31 34 -21 c48
-29 112 -27 143 5 77 76 -55 185 -156 130z"/>
<path d="M2950 7358 c-84 -43 -101 -99 -38 -120 79 -27 222 75 178 126 -19 23
-88 20 -140 -6z"/>
<path d="M8415 7321 c-39 -16 -60 -51 -60 -98 0 -38 5 -49 33 -74 47 -43 102
-41 148 5 38 38 43 70 19 116 -25 49 -88 72 -140 51z"/>
<path d="M11214 7320 c-57 -23 -71 -100 -28 -144 57 -56 158 -19 158 58 0 62
-73 110 -130 86z"/>
<path d="M7895 7276 c-90 -40 -107 -130 -33 -177 41 -25 133 -22 193 7 36 17
40 23 43 59 1 22 -4 51 -11 65 -26 52 -125 76 -192 46z"/>
<path d="M8934 7280 c-38 -15 -74 -68 -74 -110 0 -104 161 -124 220 -27 46 75
6 148 -79 146 -25 0 -55 -4 -67 -9z"/>
<path d="M5356 7265 c-22 -7 -49 -23 -60 -35 l-21 -21 24 -20 c52 -42 201 -5
201 51 0 37 -75 50 -144 25z"/>
<path d="M9660 7227 c-48 -15 -130 -96 -130 -128 0 -54 53 -64 135 -25 56 26
88 57 104 99 9 23 7 31 -9 47 -22 22 -47 24 -100 7z"/>
<path d="M10710 7214 c-197 -33 -312 -98 -405 -229 -45 -63 -98 -170 -93 -186
2 -5 25 19 52 52 131 162 313 259 485 259 91 0 163 -19 249 -66 34 -19 66 -34
70 -34 7 0 72 111 72 122 0 8 -110 46 -180 62 -69 16 -208 27 -250 20z"/>
<path d="M607 7168 c-29 -70 -40 -141 -35 -237 9 -170 66 -282 234 -462 160
-171 204 -249 204 -363 l0 -51 33 50 c27 41 32 59 34 113 1 35 4 66 6 69 3 2
30 0 60 -6 72 -16 110 -3 105 36 -5 44 -84 87 -164 89 l-64 1 -123 129 c-67
71 -138 151 -156 177 -81 119 -128 282 -118 414 3 40 4 73 1 73 -2 0 -10 -15
-17 -32z"/>
<path d="M1524 7190 c-34 -13 -36 -25 -9 -50 16 -15 41 -24 73 -28 84 -8 94
41 15 75 -37 15 -49 15 -79 3z"/>
<path d="M1366 7159 c-49 -38 -24 -67 43 -49 42 11 77 43 66 59 -11 19 -80 12
-109 -10z"/>
<path d="M6072 7121 c-23 -14 -9 -54 27 -78 36 -24 105 -31 117 -12 12 19 -18
58 -61 79 -45 22 -63 24 -83 11z"/>
<path d="M4770 7068 c-74 -21 -120 -75 -120 -142 0 -52 39 -80 105 -73 28 3
60 8 72 12 19 6 23 2 33 -33 36 -137 239 -127 266 13 16 89 -40 147 -149 153
-62 4 -69 6 -82 32 -13 26 -29 35 -75 45 -8 2 -31 -1 -50 -7z"/>
<path d="M8437 7066 c-102 -37 -83 -88 26 -72 76 12 135 63 91 80 -25 10 -76
6 -117 -8z"/>
<path d="M3730 7053 c-37 -26 -49 -45 -50 -79 0 -31 19 -55 54 -68 10 -3 16
-12 13 -19 -3 -6 -8 -20 -12 -30 -10 -25 69 -101 120 -116 52 -14 98 -14 113
1 37 37 -22 117 -101 139 -84 22 -85 23 -55 48 15 13 32 37 39 53 10 25 9 33
-8 56 -25 33 -77 40 -113 15z"/>
<path d="M2136 6973 c-47 -48 -56 -63 -56 -92 0 -39 5 -48 34 -71 27 -21 292
-25 324 -4 35 23 27 56 -29 125 -57 68 -111 98 -175 99 -38 0 -47 -6 -98 -57z"/>
<path d="M11740 6933 c-67 -46 -67 -113 0 -148 64 -33 156 -11 185 44 19 38 4
86 -36 106 -38 20 -119 19 -149 -2z"/>
<path d="M6806 6895 c-246 -47 -442 -213 -531 -450 -31 -83 -55 -192 -54 -248
0 -40 2 -38 33 48 19 49 38 91 43 92 6 2 22 -12 37 -32 15 -20 52 -49 82 -66
30 -17 54 -32 54 -34 0 -2 -22 -30 -50 -61 -27 -31 -50 -60 -50 -65 0 -4 30 8
66 26 104 52 189 70 339 70 164 0 244 -23 312 -91 23 -24 43 -50 43 -59 0 -23
41 -19 47 5 4 16 14 20 45 20 54 0 97 25 114 66 41 98 -76 167 -159 94 -19
-16 -37 -30 -40 -30 -3 0 -28 15 -56 34 -89 60 -152 78 -276 80 -66 1 -134 -5
-169 -13 l-59 -15 -61 65 c-58 62 -86 80 -148 93 -16 4 -28 13 -28 20 0 31 93
136 158 179 141 93 282 132 455 124 106 -5 121 -3 137 13 19 19 48 126 37 136
-14 15 -243 13 -321 -1z"/>
<path d="M10875 6871 c-48 -29 -66 -56 -73 -108 -4 -26 -12 -48 -17 -48 -6 1
-44 12 -85 25 -53 17 -98 24 -155 24 -93 0 -143 -13 -203 -51 -42 -27 -58 -52
-24 -38 9 4 53 10 98 12 222 14 480 -127 496 -272 3 -25 -2 -32 -37 -52 -22
-12 -70 -27 -108 -33 l-68 -12 -67 40 c-76 46 -140 68 -226 77 -55 6 -62 10
-120 68 -33 34 -72 83 -86 110 -14 26 -29 47 -34 47 -5 0 -6 -32 -4 -70 13
-171 141 -301 357 -360 40 -11 81 -18 91 -15 28 9 85 -48 121 -121 26 -52 31
-72 27 -109 -6 -53 2 -62 36 -40 53 35 54 128 5 227 -27 53 -24 63 26 93 25
14 51 36 58 48 8 12 31 51 51 85 45 75 45 117 1 184 -29 44 -27 68 6 68 32 0
87 38 104 70 17 34 20 93 5 121 -26 47 -121 64 -175 30z"/>
<path d="M9461 6760 c-69 -29 -124 -97 -100 -126 16 -20 83 -17 127 5 53 28
94 74 90 102 -3 21 -9 24 -48 26 -25 1 -56 -2 -69 -7z"/>
<path d="M4393 6675 c-30 -21 -29 -39 3 -64 33 -26 115 -29 138 -5 21 20 20
27 -7 52 -31 30 -104 39 -134 17z"/>
<path d="M6898 6664 c-30 -16 -38 -44 -12 -44 27 0 84 31 84 46 0 18 -37 17
-72 -2z"/>
<path d="M954 6646 c-9 -23 9 -40 64 -64 96 -41 176 -41 170 1 -5 34 -78 69
-159 75 -57 4 -70 2 -75 -12z"/>
<path d="M7972 6649 c-13 -5 -35 -18 -49 -29 -16 -12 -41 -20 -65 -20 -28 0
-46 -7 -63 -25 -31 -30 -31 -37 -1 -71 22 -26 29 -28 154 -37 l131 -10 -2 -35
c-2 -29 3 -38 23 -49 36 -20 133 -12 168 14 64 47 27 93 -76 93 -57 0 -63 2
-57 18 29 69 30 73 15 100 -29 51 -116 76 -178 51z"/>
<path d="M2650 6599 c0 -7 10 -23 21 -35 l22 -23 -27 -31 c-52 -63 -22 -153
61 -181 48 -16 103 1 138 43 49 58 17 143 -64 169 -20 7 -49 22 -66 35 -38 28
-85 41 -85 23z"/>
<path d="M3288 6570 c-26 -27 -29 -35 -25 -73 13 -102 18 -91 -43 -98 -53 -6
-112 -29 -124 -48 -4 -5 1 -17 10 -25 34 -35 212 -10 238 33 4 6 30 11 57 11
62 0 95 21 110 70 24 79 -49 160 -143 160 -42 0 -54 -5 -80 -30z"/>
<path d="M5017 6586 c-53 -19 -79 -45 -75 -75 10 -82 213 -49 213 34 0 50 -61
68 -138 41z"/>
<path d="M2405 6560 c-4 -7 -30 -8 -69 -4 -51 5 -65 3 -79 -11 -45 -44 47
-149 141 -162 70 -9 105 33 67 83 -21 28 -18 41 10 48 32 8 32 30 0 44 -32 15
-62 15 -70 2z"/>
<path d="M7407 6563 c-49 -49 138 -187 209 -154 32 14 30 33 -8 77 -51 58
-174 105 -201 77z"/>
<path d="M6755 6540 c-83 -20 -175 -84 -175 -121 0 -62 167 -35 253 41 72 63
29 107 -78 80z"/>
<path d="M5544 6519 c-34 -10 -94 -70 -94 -94 0 -22 29 -45 56 -45 39 0 88 25
117 59 33 39 34 55 5 75 -25 18 -38 18 -84 5z"/>
<path d="M11189 6511 c-102 -32 -126 -123 -51 -193 109 -104 293 -5 227 122
-27 53 -117 89 -176 71z"/>
<path d="M8963 6483 c-19 -7 -16 -31 6 -43 32 -17 136 -13 152 6 11 14 10 18
-6 30 -18 14 -125 19 -152 7z"/>
<path d="M3589 6457 c-28 -19 -34 -29 -34 -57 0 -28 5 -37 28 -48 37 -18 88
-8 127 24 82 69 -29 143 -121 81z"/>
<path d="M395 6445 c-39 -14 -65 -38 -65 -61 0 -27 44 -64 92 -79 68 -20 114
-19 166 5 36 16 42 23 42 49 0 51 -54 87 -142 96 -34 3 -67 0 -93 -10z"/>
<path d="M4304 6431 c-75 -34 -107 -88 -73 -122 36 -36 134 -17 192 38 73 71
-14 132 -119 84z"/>
<path d="M10114 6373 c-37 -129 6 -273 116 -383 136 -136 374 -193 474 -114
l36 29 -88 6 c-121 8 -147 25 -69 46 23 7 55 25 72 43 40 42 43 115 6 154 -54
57 -150 55 -208 -6 -23 -24 -28 -38 -28 -76 0 -26 4 -55 9 -64 6 -14 4 -18 -9
-18 -10 0 -55 37 -100 83 -93 94 -148 191 -168 295 -6 34 -15 62 -19 62 -4 0
-15 -26 -24 -57z"/>
<path d="M3782 6327 c-29 -35 62 -94 162 -105 52 -6 61 -10 64 -29 3 -21 62
-53 97 -53 11 0 15 -11 15 -38 0 -93 104 -139 207 -93 137 63 37 222 -115 182
-31 -9 -47 -8 -75 4 -20 8 -55 15 -77 15 -36 0 -40 3 -40 24 0 62 -200 140
-238 93z"/>
<path d="M9245 6316 c-46 -28 -68 -62 -63 -97 3 -22 8 -24 50 -23 38 0 56 7
85 31 99 79 37 154 -72 89z"/>
<path d="M1704 6256 c-37 -16 -74 -61 -74 -90 0 -56 70 -116 136 -116 39 0 93
29 109 60 9 17 31 33 61 45 124 47 104 121 -26 96 -44 -8 -63 -8 -95 4 -50 18
-72 18 -111 1z"/>
<path d="M10009 6123 c-76 -178 -66 -417 25 -608 47 -97 100 -166 246 -320
164 -173 240 -294 240 -380 0 -27 -6 -29 -64 -16 -81 19 -112 -26 -60 -89 38
-44 97 -72 147 -68 38 3 42 6 45 32 2 16 -1 33 -7 39 -16 16 -13 35 8 66 44
61 34 180 -24 299 -29 58 -64 102 -181 223 -165 173 -218 243 -274 362 -60
127 -74 198 -74 365 0 78 -2 142 -4 142 -1 0 -12 -21 -23 -47z"/>
<path d="M7886 6112 c-27 -9 -67 -33 -89 -54 -33 -32 -38 -40 -27 -53 27 -33
138 -8 203 46 78 64 28 100 -87 61z"/>
<path d="M8560 6115 c-13 -15 -11 -20 17 -46 49 -43 166 -73 202 -50 38 24
-63 94 -156 106 -39 6 -52 4 -63 -10z"/>
<path d="M5803 6074 c-14 -36 105 -114 181 -117 35 -2 41 1 44 20 8 56 -205
149 -225 97z"/>
<path d="M6220 6002 c0 -34 34 -114 70 -167 25 -37 31 -52 23 -64 -6 -9 -18
-15 -27 -15 -41 4 -33 -138 13 -230 59 -120 175 -222 319 -279 70 -29 87 -31
192 -32 97 0 122 3 161 21 61 28 116 80 181 167 47 63 53 77 52 118 -1 55 -33
116 -99 183 -25 26 -45 53 -45 60 0 7 11 23 24 36 30 27 62 92 72 145 l7 38
-39 -39 c-49 -49 -117 -90 -177 -106 -40 -10 -48 -10 -65 5 -15 14 -39 17
-133 17 -63 0 -136 -6 -164 -14 -40 -10 -59 -11 -90 -1 -73 22 -167 76 -222
127 -45 43 -53 48 -53 30z m746 -338 c32 -19 74 -50 93 -67 60 -57 89 -150 59
-189 -38 -50 -276 -70 -408 -35 -112 30 -227 93 -302 166 -85 84 -88 101 -14
101 39 0 60 6 80 21 20 15 34 19 54 14 43 -11 200 -6 277 9 100 19 95 19 161
-20z"/>
<path d="M12054 5948 c-18 -28 113 -95 138 -70 16 16 -7 40 -57 63 -47 22 -71
24 -81 7z"/>
<path d="M8153 5910 c-98 -59 -70 -159 37 -130 44 12 90 60 90 94 0 53 -68 72
-127 36z"/>
<path d="M3494 5881 c-18 -10 -39 -30 -48 -42 -18 -27 -21 -81 -5 -110 7 -15
7 -24 -1 -34 -21 -25 0 -35 76 -35 115 0 164 35 164 117 0 92 -109 153 -186
104z"/>
<path d="M9219 5873 c-37 -23 -59 -64 -59 -113 0 -34 -6 -47 -35 -74 -47 -45
-49 -100 -6 -148 25 -28 36 -33 76 -33 40 0 51 5 76 33 20 22 29 43 29 67 0
27 6 37 28 49 54 28 77 63 77 118 0 44 -4 53 -37 84 -31 28 -46 34 -80 34 -24
0 -55 -8 -69 -17z"/>
<path d="M7380 5868 c-66 -35 14 -98 125 -98 98 0 127 42 57 83 -42 25 -147
33 -182 15z"/>
<path d="M583 5849 c-19 -19 -16 -32 15 -62 41 -39 110 -67 168 -67 147 0 50
127 -104 137 -47 4 -71 1 -79 -8z"/>
<path d="M1993 5790 c-60 -36 -68 -82 -25 -131 71 -79 212 -4 172 91 -9 21
-26 38 -46 46 -44 19 -63 18 -101 -6z"/>
<path d="M5464 5791 c-71 -44 -87 -125 -36 -182 24 -27 37 -33 83 -36 69 -6
117 23 138 82 26 75 -24 143 -112 152 -30 3 -51 -1 -73 -16z"/>
<path d="M5851 5784 c-26 -22 -31 -33 -31 -71 0 -37 5 -50 30 -73 37 -35 81
-44 125 -26 102 43 52 196 -64 196 -17 0 -42 -11 -60 -26z"/>
<path d="M4019 5671 l-24 -19 21 -29 c30 -41 99 -73 159 -73 55 0 75 12 75 45
0 66 -174 123 -231 76z"/>
<path d="M8828 5650 c-105 -32 -152 -154 -82 -209 107 -84 290 42 230 157 -9
17 -24 36 -34 41 -28 15 -85 21 -114 11z"/>
<path d="M12757 5586 c-48 -17 -67 -34 -67 -57 0 -24 29 -39 74 -39 l36 0 0
55 c0 30 -1 55 -2 55 -2 -1 -20 -7 -41 -14z"/>
<path d="M1595 5573 c-11 -3 -32 -17 -47 -31 -68 -64 3 -157 105 -138 106 20
100 155 -8 170 -16 2 -39 2 -50 -1z"/>
<path d="M3884 5521 c-55 -25 -63 -40 -33 -64 20 -16 35 -19 94 -15 106 7 175
52 130 84 -28 21 -141 17 -191 -5z"/>
<path d="M6243 5424 c-4 -16 -8 -78 -7 -139 1 -119 23 -219 71 -328 l26 -57
-27 -25 c-32 -30 -32 -39 -1 -70 17 -18 35 -25 61 -25 33 0 45 -9 118 -83 95
-97 144 -131 349 -239 253 -134 357 -209 423 -305 43 -61 39 -76 -13 -57 -76
27 -153 9 -153 -36 0 -26 63 -78 105 -86 20 -3 58 -4 84 0 43 6 49 4 58 -16 9
-20 13 -9 33 75 25 111 21 146 -27 241 -61 122 -145 192 -358 298 -167 83
-265 139 -265 151 0 4 15 14 33 22 50 21 79 58 84 107 5 53 -11 85 -57 116
-68 46 -176 11 -200 -66 -7 -20 -16 -41 -20 -45 -12 -13 -90 76 -152 174 -61
97 -111 221 -135 339 -8 41 -17 77 -19 79 -1 2 -7 -10 -11 -25z"/>
<path d="M3654 5406 c-28 -28 -34 -42 -34 -76 0 -35 6 -48 35 -77 33 -33 39
-35 86 -31 84 8 132 72 109 144 -17 50 -53 74 -112 74 -43 0 -54 -4 -84 -34z"/>
<path d="M1981 5403 c-38 -19 -71 -66 -71 -103 0 -36 34 -86 72 -106 44 -23
124 -22 171 1 99 47 96 158 -5 211 -36 19 -125 17 -167 -3z"/>
<path d="M5548 5375 c-77 -42 -16 -125 92 -125 111 0 139 84 40 124 -49 20
-96 20 -132 1z"/>
<path d="M11312 5375 c-17 -8 -42 -30 -53 -50 -18 -30 -26 -35 -59 -35 -74 0
-135 -68 -114 -126 33 -95 190 -92 233 4 13 29 19 32 57 32 81 0 134 37 134
93 0 75 -110 120 -198 82z"/>
<path d="M1364 5355 c-4 -9 -1 -29 6 -45 16 -38 7 -60 -25 -60 -13 0 -39 -13
-57 -29 l-33 -30 17 -33 c9 -18 19 -46 23 -62 10 -48 42 -83 90 -101 37 -15
52 -16 89 -6 36 9 52 8 88 -5 58 -21 141 -21 173 0 51 33 22 85 -71 127 l-63
29 -6 57 c-5 37 -16 69 -31 89 -45 61 -185 109 -200 69z"/>
<path d="M80 5324 c-61 -27 -80 -51 -80 -107 0 -52 13 -70 73 -103 34 -18 112
-20 161 -4 76 25 109 109 66 170 -39 54 -146 76 -220 44z"/>
<path d="M3025 5317 c-20 -15 -20 -16 4 -41 44 -46 201 -79 232 -49 46 46
-180 132 -236 90z"/>
<path d="M9445 5291 c-75 -46 -86 -94 -22 -99 45 -4 98 25 116 64 23 51 -34
73 -94 35z"/>
<path d="M7423 5245 c-29 -21 -29 -59 -1 -79 25 -18 100 -21 129 -6 25 14 24
52 -1 75 -27 25 -99 31 -127 10z"/>
<path d="M6030 5230 c-26 -26 -25 -53 3 -84 31 -37 75 -43 110 -16 34 27 35
63 2 95 -31 32 -86 34 -115 5z"/>
<path d="M10101 5186 c-37 -21 -50 -55 -51 -133 0 -65 3 -76 28 -105 16 -18
34 -48 42 -66 39 -97 188 -122 228 -39 16 33 3 84 -28 112 -33 30 -67 100 -73
151 -9 80 -78 118 -146 80z"/>
<path d="M9764 5176 c-43 -19 -64 -53 -64 -101 0 -104 120 -175 224 -131 44
18 66 52 66 101 0 54 -29 98 -82 124 -50 24 -99 26 -144 7z"/>
<path d="M2923 5154 c-18 -9 -39 -27 -48 -40 -13 -20 -24 -24 -63 -24 -85 -1
-190 -69 -165 -108 18 -29 111 -23 162 11 l42 28 44 -21 c37 -18 50 -20 82
-11 21 6 49 20 62 32 90 84 -2 189 -116 133z"/>
<path d="M5270 5139 c-33 -14 -70 -49 -70 -67 0 -8 -11 -27 -25 -44 -14 -16
-25 -38 -25 -48 0 -25 62 -77 107 -89 87 -25 199 -6 222 37 6 11 26 29 46 41
30 18 35 25 35 59 0 28 -7 45 -25 62 -45 42 -208 73 -265 49z"/>
<path d="M3980 5122 c-49 -24 -54 -64 -9 -87 45 -24 169 -18 199 10 47 43 -10
95 -105 95 -28 0 -66 -8 -85 -18z"/>
<path d="M10630 5120 c-46 -46 -6 -120 65 -120 42 0 85 34 85 66 0 14 -11 36
-25 49 -31 32 -96 34 -125 5z"/>
<path d="M11657 5110 c-50 -40 -43 -116 13 -145 91 -47 173 64 101 136 -35 35
-77 38 -114 9z"/>
<path d="M7603 5090 c-39 -24 -63 -67 -63 -116 0 -29 8 -44 39 -75 35 -35 44
-39 91 -39 47 0 56 4 91 39 34 34 39 44 39 85 0 27 -7 58 -16 72 -36 54 -122
70 -181 34z"/>
<path d="M8290 5099 c-50 -20 -80 -59 -80 -105 0 -111 149 -153 224 -63 78 92
-27 214 -144 168z"/>
<path d="M4779 5081 c-20 -16 -22 -23 -14 -46 21 -59 103 -91 145 -57 22 18
23 22 11 50 -24 58 -101 87 -142 53z"/>
<path d="M6953 5065 c-114 -49 -26 -188 99 -155 85 23 93 122 13 156 -42 17
-71 17 -112 -1z"/>
<path d="M11079 4981 c-34 -35 -37 -68 -9 -104 52 -65 170 -25 170 58 0 74
-103 104 -161 46z"/>
<path d="M3611 4924 c-48 -40 -39 -99 19 -129 93 -48 203 25 160 106 -28 52
-129 65 -179 23z"/>
<path d="M4314 4890 c-73 -17 -132 -91 -119 -149 11 -49 49 -76 109 -76 122 0
201 122 127 196 -16 16 -36 29 -44 29 -9 0 -21 2 -29 4 -7 2 -27 1 -44 -4z"/>
<path d="M9232 4798 c-19 -19 -14 -67 9 -99 42 -59 157 -97 210 -69 28 16 25
71 -6 108 -49 59 -178 95 -213 60z"/>
<path d="M8828 4784 c-67 -36 -73 -120 -13 -173 87 -76 225 -34 225 69 0 91
-124 152 -212 104z"/>
<path d="M9664 4746 c-35 -16 -64 -51 -64 -79 0 -10 13 -32 29 -48 25 -25 37
-29 83 -29 117 0 172 91 89 147 -39 26 -90 29 -137 9z"/>
<path d="M3155 4696 c-38 -17 -70 -52 -82 -90 -7 -22 -20 -33 -60 -48 -136
-50 -152 -194 -26 -227 71 -19 145 11 191 80 23 33 24 52 7 106 -6 17 -3 24
11 29 11 3 34 12 53 20 33 15 33 16 27 62 -3 25 -12 52 -19 59 -19 20 -69 24
-102 9z"/>
<path d="M1587 4682 c-22 -25 -21 -48 3 -79 19 -25 19 -27 3 -45 -25 -28 -7
-50 53 -66 75 -20 183 -3 206 32 10 16 -1 26 -48 48 -34 15 -44 24 -44 43 0
13 -3 31 -6 40 -17 43 -135 62 -167 27z"/>
<path d="M7807 4684 c-102 -55 -1 -183 144 -184 48 0 62 5 94 30 21 17 42 30
46 30 25 0 3 34 -46 70 -91 68 -177 87 -238 54z"/>
<path d="M4174 4626 c-61 -27 -67 -105 -12 -151 42 -35 91 -34 129 4 38 38 39
80 2 121 -33 36 -76 45 -119 26z"/>
<path d="M10675 4614 c-6 -1 -22 -5 -36 -8 -53 -12 -41 -59 23 -92 38 -20 142
-18 162 2 9 8 16 19 16 24 0 13 -60 60 -83 64 -41 9 -73 12 -82 10z"/>
<path d="M6405 4591 c-51 -31 -68 -58 -73 -114 -3 -42 1 -58 20 -87 85 -126
280 -62 265 87 -11 103 -128 167 -212 114z"/>
<path d="M5261 4576 c-9 -11 -6 -20 14 -45 30 -35 83 -54 135 -49 31 3 35 6
35 33 0 24 -7 34 -40 52 -46 26 -126 31 -144 9z"/>
<path d="M2003 4545 c-12 -8 -27 -30 -33 -49 -33 -102 105 -183 181 -107 46
47 35 127 -22 157 -36 18 -99 18 -126 -1z"/>
<path d="M2253 4415 c-37 -16 -73 -68 -73 -106 0 -32 32 -74 70 -94 85 -44
200 17 200 104 0 88 -102 138 -197 96z"/>
<path d="M9105 4414 c-59 -22 -107 -72 -103 -108 11 -108 263 -94 317 18 38
80 -91 135 -214 90z"/>
<path d="M10608 4399 c-28 -16 -21 -48 16 -85 38 -38 92 -46 120 -18 19 18 19
16 6 48 -18 50 -99 81 -142 55z"/>
<path d="M5979 4347 c-27 -14 -52 -37 -63 -59 -19 -34 -19 -37 -2 -62 9 -15
29 -32 44 -37 58 -23 181 13 216 63 17 24 21 65 8 84 -27 41 -135 46 -203 11z"/>
<path d="M4618 4348 c-69 -55 38 -169 146 -155 130 18 53 167 -86 167 -24 0
-51 -6 -60 -12z"/>
<path d="M4176 4279 c-64 -16 -150 -67 -202 -121 -27 -28 -44 -49 -39 -47 6 2
44 21 85 41 197 98 373 87 505 -34 68 -62 70 -77 11 -75 -60 3 -100 -27 -104
-76 -4 -47 10 -72 57 -101 29 -19 40 -34 45 -60 7 -35 56 -88 94 -100 13 -5
22 -19 26 -47 13 -81 88 -117 170 -81 89 40 111 121 50 193 -28 34 -34 48 -29
68 4 14 9 44 12 67 4 36 1 44 -27 67 -35 30 -90 36 -146 15 -29 -10 -36 -9
-54 7 -29 26 -25 46 17 83 l38 32 -37 33 c-50 45 -134 93 -204 119 -67 24
-205 33 -268 17z"/>
<path d="M1646 4250 c-39 -12 -76 -49 -76 -75 0 -29 26 -51 77 -64 42 -11 65
-10 133 10 32 10 40 8 89 -25 60 -41 121 -50 121 -18 0 25 -32 58 -80 82 -30
15 -40 26 -40 45 0 39 -34 55 -120 54 -41 0 -88 -5 -104 -9z"/>
<path d="M6971 4250 c-40 -9 -66 -33 -56 -50 14 -23 75 -40 142 -40 71 0 113
17 113 46 0 32 -131 61 -199 44z"/>
<path d="M1181 4228 c-39 -21 -48 -44 -27 -67 26 -29 68 -35 111 -17 21 9 45
16 54 16 9 0 27 7 39 16 32 22 14 40 -51 48 -28 3 -63 8 -77 11 -14 3 -36 0
-49 -7z"/>
<path d="M10682 4178 c-25 -25 35 -76 73 -62 25 10 17 42 -15 59 -35 18 -42
19 -58 3z"/>
<path d="M10140 4125 c-33 -39 54 -114 140 -123 80 -7 105 30 53 81 -55 52
-165 76 -193 42z"/>
<path d="M2392 4063 c-36 -7 -92 -66 -93 -99 -5 -113 45 -160 165 -155 19 1
41 14 67 40 33 32 39 45 39 80 0 96 -76 153 -178 134z"/>
<path d="M3654 4049 c-17 -5 -39 -18 -49 -29 -18 -19 -18 -22 -2 -38 34 -33
147 -9 155 32 8 38 -39 54 -104 35z"/>
<path d="M7683 4030 c-72 -30 -38 -127 65 -183 145 -79 259 -8 166 103 -51 60
-176 104 -231 80z"/>
<path d="M3985 4001 c-16 -6 -10 -10 30 -20 76 -18 147 -61 159 -96 20 -55 35
-72 90 -101 60 -31 76 -55 76 -114 0 -22 4 -40 9 -40 21 0 51 54 51 90 0 29 6
41 25 54 37 25 34 73 -7 113 -43 40 -64 50 -129 62 -30 5 -81 21 -114 35 -61
26 -147 34 -190 17z"/>
<path d="M3840 3980 c-8 -15 -13 -53 -13 -92 1 -58 -1 -68 -16 -68 -9 0 -22 5
-27 10 -13 13 -94 -14 -111 -37 -17 -23 -16 -78 1 -92 8 -7 18 -38 21 -69 9
-72 52 -167 101 -221 69 -77 188 -129 247 -108 28 9 28 10 -40 43 -37 18 -82
48 -100 66 -43 45 -103 147 -103 175 0 20 5 23 39 23 24 0 48 8 66 22 26 20
29 21 54 5 14 -9 50 -29 79 -44 l53 -28 -6 -47 c-6 -38 -3 -55 16 -88 20 -35
21 -45 12 -70 -10 -27 -9 -30 7 -30 10 0 32 11 48 25 17 14 37 25 46 25 33 0
97 33 116 60 30 42 34 80 14 127 -16 36 -24 43 -62 53 -24 6 -59 8 -78 4 -32
-6 -38 -2 -97 59 -34 35 -85 76 -114 90 -69 36 -98 78 -127 187 l-12 45 -14
-25z"/>
<path d="M6928 3965 c-54 -30 -64 -97 -23 -151 14 -18 25 -46 25 -62 0 -33 32
-67 73 -77 19 -5 27 -13 27 -30 0 -26 25 -51 61 -60 67 -17 179 52 179 108 0
29 -33 57 -65 57 -28 0 -45 19 -45 50 0 14 -5 31 -12 38 -7 7 -21 31 -33 54
-11 23 -32 50 -46 61 -36 26 -106 32 -141 12z"/>
<path d="M9144 3916 c-36 -16 -74 -61 -74 -88 0 -60 55 -82 124 -48 70 33 91
101 43 135 -26 18 -52 18 -93 1z"/>
<path d="M8919 3890 l-24 -20 25 -21 c18 -15 32 -19 54 -15 54 11 74 46 37 66
-30 16 -67 12 -92 -10z"/>
<path d="M5077 3876 c-167 -61 -131 -282 49 -302 139 -15 231 135 148 243 -46
60 -128 85 -197 59z"/>
<path d="M0 3765 l0 -94 39 -11 c70 -19 131 19 131 80 0 65 -62 120 -135 120
l-35 0 0 -95z"/>
<path d="M11498 3804 c-88 -47 -1 -156 126 -157 133 -2 168 96 56 153 -47 24
-142 26 -182 4z"/>
<path d="M10362 3798 c-12 -6 -25 -23 -29 -36 -19 -79 121 -146 191 -91 32 25
33 47 4 84 -38 48 -114 68 -166 43z"/>
<path d="M7498 3684 c-33 -18 -35 -29 -7 -45 26 -13 87 -3 111 18 41 37 -46
59 -104 27z"/>
<path d="M3601 3656 c-22 -24 -24 -24 -64 -10 -132 48 -206 -66 -84 -127 23
-12 43 -23 45 -24 2 -2 -5 -29 -14 -61 -23 -77 -23 -227 0 -313 10 -35 31 -95
48 -133 24 -52 28 -72 20 -80 -24 -24 -13 -57 33 -95 25 -20 45 -43 45 -51 0
-7 -14 -21 -30 -30 -17 -9 -33 -25 -36 -35 -8 -25 19 -61 56 -77 30 -12 32
-16 27 -49 -3 -20 -9 -47 -13 -59 -7 -24 -6 -24 34 5 57 39 92 125 80 198 -6
37 -4 53 7 65 24 27 17 57 -20 87 -41 34 -110 169 -151 295 -23 69 -27 102
-28 198 -1 106 1 118 23 154 14 22 24 52 23 68 -1 16 5 42 14 59 20 39 14 46
-15 15z"/>
<path d="M8289 3650 c-42 -22 -64 -66 -54 -108 21 -96 199 -116 259 -30 67 96
-88 200 -205 138z"/>
<path d="M9960 3639 c-57 -23 -90 -79 -54 -93 67 -26 208 48 179 94 -8 13 -92
12 -125 -1z"/>
<path d="M12419 3612 c-25 -22 -31 -36 -31 -67 0 -32 6 -45 36 -72 29 -27 44
-33 80 -33 115 0 148 132 46 185 -46 24 -95 19 -131 -13z"/>
<path d="M435 3618 c-47 -25 -75 -62 -75 -96 0 -48 16 -71 63 -93 49 -22 94
-24 149 -7 45 13 98 68 98 102 0 29 -33 72 -70 91 -34 17 -136 19 -165 3z"/>
<path d="M0 3521 c0 -63 2 -69 23 -75 29 -8 71 -8 91 0 42 16 -6 90 -81 128
l-33 17 0 -70z"/>
<path d="M8923 3570 c-54 -22 2 -93 82 -106 34 -5 51 -2 70 10 31 20 32 37 3
63 -42 37 -109 51 -155 33z"/>
<path d="M3022 3553 c-98 -48 -109 -201 -19 -265 20 -15 50 -23 88 -26 75 -6
123 21 151 86 61 136 -85 272 -220 205z"/>
<path d="M7302 3534 c-13 -9 -22 -26 -22 -40 0 -78 198 -136 262 -77 37 34 14
80 -59 117 -42 21 -151 22 -181 0z"/>
<path d="M4644 3511 c-81 -49 -87 -138 -14 -176 21 -11 30 -23 30 -41 0 -38
50 -84 92 -84 64 0 78 47 28 95 l-29 28 34 39 c26 28 35 47 35 72 0 73 -103
112 -176 67z"/>
<path d="M9634 3510 c-63 -25 -95 -119 -54 -160 76 -76 223 22 184 125 -14 35
-83 54 -130 35z"/>
<path d="M1802 3468 c-33 -33 7 -78 70 -78 34 0 68 20 68 41 0 5 -9 18 -20 29
-23 23 -98 28 -118 8z"/>
<path d="M6283 3455 c-68 -29 -30 -77 61 -78 93 -1 132 49 61 79 -43 18 -80
17 -122 -1z"/>
<path d="M12711 3433 c-40 -20 -71 -66 -71 -106 0 -42 49 -87 93 -87 66 0 67
2 67 111 l0 99 -27 0 c-16 0 -43 -8 -62 -17z"/>
<path d="M2455 3355 c-47 -46 -23 -125 49 -159 19 -9 57 -16 85 -16 42 0 57 5
76 25 33 32 32 75 -2 116 -53 63 -162 81 -208 34z"/>
<path d="M5664 3366 c-62 -28 -46 -103 29 -137 103 -46 199 3 156 80 -30 53
-127 83 -185 57z"/>
<path d="M7309 3306 c-35 -20 -62 -79 -54 -116 14 -66 99 -99 164 -66 53 28
69 114 28 161 -28 33 -98 43 -138 21z"/>
<path d="M8140 3254 c-32 -22 -51 -45 -44 -55 16 -26 102 10 124 50 10 19 8
21 -22 21 -19 0 -45 -7 -58 -16z"/>
<path d="M4392 3244 c-76 -53 -21 -164 72 -147 34 7 66 48 66 85 0 63 -83 101
-138 62z"/>
<path d="M1745 3224 c-22 -7 -41 -14 -42 -14 -10 -1 -33 -66 -33 -93 0 -28 8
-42 36 -67 44 -38 73 -50 125 -50 51 0 92 21 107 55 17 36 15 55 -8 108 -21
48 -25 50 -120 70 -14 3 -43 -1 -65 -9z"/>
<path d="M10882 3193 c-35 -17 -52 -57 -33 -76 19 -19 87 -14 118 9 74 55 4
111 -85 67z"/>
<path d="M2095 3141 c-76 -35 -98 -87 -43 -102 34 -9 103 6 145 32 37 23 54
66 32 80 -23 15 -92 10 -134 -10z"/>
<path d="M40 3106 c-34 -12 -35 -14 -38 -71 l-3 -58 46 5 c95 11 188 83 156
122 -16 20 -109 21 -161 2z"/>
<path d="M2783 3053 c-35 -7 -83 -58 -83 -86 0 -52 78 -83 144 -57 61 23 86
88 47 124 -20 18 -71 27 -108 19z"/>
<path d="M8387 3042 c-36 -22 -45 -51 -21 -69 37 -28 124 8 124 51 0 39 -54
48 -103 18z"/>
<path d="M9410 2989 c-44 -27 -57 -44 -70 -91 -23 -83 35 -170 122 -183 50 -8
92 6 130 42 25 24 28 24 81 13 62 -14 108 -9 153 19 96 58 -13 152 -141 121
-37 -9 -42 -8 -62 18 -13 15 -23 30 -23 33 0 3 -17 15 -39 27 -49 28 -106 28
-151 1z"/>
<path d="M11492 2973 c-34 -30 -37 -59 -8 -88 49 -49 146 -16 146 51 0 47 -96
73 -138 37z"/>
<path d="M6537 2964 c-31 -7 -74 -23 -95 -34 l-37 -21 40 6 c22 3 73 8 113 12
78 6 85 2 56 -42 -39 -60 8 -116 103 -123 50 -3 66 0 115 26 50 27 58 29 77
16 35 -25 117 -159 137 -223 16 -54 21 -61 39 -57 11 2 37 8 58 11 44 9 46 18
11 88 -136 270 -372 401 -617 341z"/>
<path d="M5992 2954 c-21 -14 -39 -18 -109 -23 -12 0 -38 -15 -58 -32 -73 -65
-26 -159 80 -159 50 0 103 27 120 61 19 36 19 54 -2 90 -18 29 -17 30 12 54
l30 24 -25 1 c-14 0 -36 -7 -48 -16z"/>
<path d="M7846 2908 c-20 -28 -20 -33 0 -52 25 -26 72 -20 86 9 23 51 -54 90
-86 43z"/>
<path d="M8575 2845 c-69 -37 -101 -97 -76 -144 26 -47 125 -66 194 -37 80 33
111 120 62 166 -33 31 -134 40 -180 15z"/>
<path d="M1108 2825 c-59 -33 -24 -121 65 -164 81 -39 187 -21 187 32 0 89
-171 178 -252 132z"/>
<path d="M6248 2813 c-50 -54 -74 -125 -69 -206 2 -34 -3 -57 -19 -84 -21 -36
-21 -37 -2 -62 10 -14 31 -32 45 -39 14 -7 47 -40 73 -74 45 -59 46 -63 41
-114 -8 -74 -39 -139 -79 -163 -40 -25 -55 -17 -111 55 -56 73 -56 83 -3 136
49 48 57 79 32 114 -11 15 -27 19 -73 19 l-58 0 1 70 c0 86 26 162 72 216 39
45 38 54 -3 39 -51 -20 -104 -70 -132 -128 -26 -54 -28 -65 -29 -198 l-2 -142
42 -58 c50 -72 110 -132 142 -144 13 -5 59 -12 102 -16 l77 -6 36 39 c20 22
44 62 54 89 25 67 27 68 80 55 36 -9 57 -9 103 3 31 8 70 17 85 20 75 17 91
199 30 329 -57 120 -184 226 -272 227 l-35 0 45 -29 c151 -97 259 -346 206
-474 -23 -55 -39 -61 -91 -39 -68 31 -132 95 -140 140 -9 55 -58 152 -100 194
-33 34 -36 42 -36 96 0 32 7 81 15 108 18 58 17 54 7 54 -5 0 -20 -12 -34 -27z"/>
<path d="M11220 2803 c-53 -20 -68 -81 -26 -108 64 -42 151 -37 182 10 21 32
10 61 -29 86 -31 18 -94 24 -127 12z"/>
<path d="M5340 2780 c-82 -20 30 -130 134 -132 70 -1 83 18 45 66 -36 46 -126
79 -179 66z"/>
<path d="M4853 2759 c-27 -13 -47 -32 -58 -55 -54 -114 121 -180 213 -80 88
96 -29 198 -155 135z"/>
<path d="M12105 2759 c-45 -11 -85 -44 -85 -71 0 -9 11 -25 25 -34 35 -23 135
-15 173 13 33 24 41 68 15 81 -30 16 -86 20 -128 11z"/>
<path d="M3319 2741 c-53 -21 -114 -64 -123 -88 -9 -23 13 -43 48 -43 19 0 47
-11 66 -25 68 -50 147 -57 170 -16 10 20 3 48 -22 84 -10 13 -10 21 0 35 20
28 24 41 18 57 -8 21 -99 19 -157 -4z"/>
<path d="M2270 2674 c-35 -41 51 -118 109 -98 65 23 17 114 -59 114 -22 0 -43
-7 -50 -16z"/>
<path d="M12540 2640 c-38 -38 -20 -93 37 -116 71 -30 133 22 107 91 -17 42
-110 59 -144 25z"/>
<path d="M10340 2607 c-209 -165 -289 -372 -231 -599 20 -75 64 -175 96 -213
10 -12 15 -14 12 -5 -2 8 -19 60 -37 115 -27 87 -31 111 -28 186 3 77 7 94 46
172 48 97 125 188 201 237 27 17 52 38 55 46 8 21 -29 104 -46 104 -7 0 -38
-19 -68 -43z"/>
<path d="M5815 2592 c-82 -43 -185 -142 -234 -225 -75 -128 -111 -297 -111
-526 0 -116 -15 -204 -41 -247 -10 -17 -19 -41 -19 -53 0 -12 -22 -44 -50 -73
-27 -28 -49 -53 -47 -54 1 -1 32 6 68 15 55 14 76 26 130 74 77 70 75 60 88
397 6 138 15 248 25 286 38 152 98 257 208 367 43 42 73 77 66 77 -7 0 -44
-17 -83 -38z"/>
<path d="M2442 2554 c-22 -15 -22 -17 -6 -35 31 -35 140 -56 202 -39 50 13 59
25 38 49 -37 40 -189 56 -234 25z"/>
<path d="M9262 2550 c-82 -50 -57 -150 50 -194 100 -42 213 6 211 90 -1 42
-40 89 -90 110 -48 21 -132 18 -171 -6z"/>
<path d="M1713 2509 c-156 -77 -99 -219 66 -164 96 32 144 121 89 168 -28 24
-102 22 -155 -4z"/>
<path d="M11941 2517 c-56 -29 -53 -65 9 -102 61 -35 178 -21 195 23 9 23 -27
65 -66 79 -45 16 -108 16 -138 0z"/>
<path d="M1065 2495 c-40 -39 -32 -96 16 -120 39 -21 64 -19 95 8 20 17 27 33
27 57 0 69 -89 105 -138 55z"/>
<path d="M6989 2461 c-88 -27 -151 -97 -103 -115 57 -22 184 21 206 70 11 23
10 28 -7 40 -20 15 -55 17 -96 5z"/>
<path d="M7633 2440 c-27 -16 -33 -26 -33 -54 0 -44 29 -66 87 -66 53 0 96 33
96 75 0 60 -84 85 -150 45z"/>
<path d="M12350 2449 c-28 -11 -60 -38 -60 -51 0 -30 116 15 128 50 4 14 -32
15 -68 1z"/>
<path d="M820 2429 c-63 -26 -78 -73 -35 -108 74 -58 234 -22 223 51 -7 50
-122 85 -188 57z"/>
<path d="M1382 2353 c-36 -17 -82 -67 -82 -88 0 -22 26 -36 67 -36 21 0 60 -1
87 -2 42 -2 51 2 68 24 26 34 15 75 -26 100 -38 23 -70 24 -114 2z"/>
<path d="M11881 2324 c-24 -20 -31 -34 -31 -61 0 -48 16 -72 57 -89 68 -29
137 13 137 83 0 27 -7 42 -32 64 -42 38 -89 39 -131 3z"/>
<path d="M3785 2320 c-42 -47 0 -130 76 -150 44 -12 80 -1 102 31 15 20 18 21
48 9 72 -30 234 -3 234 40 0 38 -123 53 -200 24 -73 -28 -74 -28 -86 0 -28 60
-136 88 -174 46z"/>
<path d="M10433 2333 c-7 -2 -13 -15 -13 -29 0 -48 97 -81 138 -47 28 22 21
48 -19 68 -27 15 -81 19 -106 8z"/>
<path d="M9249 2231 c-34 -35 -36 -50 -8 -84 56 -72 229 -48 229 31 0 55 -43
82 -128 82 -57 0 -67 -3 -93 -29z"/>
<path d="M2241 2236 c-53 -29 -67 -101 -26 -141 64 -65 189 -1 170 85 -13 59
-87 88 -144 56z"/>
<path d="M12546 2235 c-47 -17 -60 -29 -53 -49 13 -34 134 -27 172 10 22 22
19 31 -16 43 -40 14 -55 13 -103 -4z"/>
<path d="M855 2201 c-72 -32 -84 -71 -22 -71 60 1 148 54 132 80 -10 16 -66
12 -110 -9z"/>
<path d="M10650 2206 c-60 -16 -112 -48 -179 -111 -63 -59 -100 -128 -111
-204 -11 -81 1 -89 35 -23 17 32 63 90 105 132 117 118 236 169 324 140 21 -7
40 -9 43 -6 11 11 -19 64 -43 75 -32 14 -116 13 -174 -3z"/>
<path d="M10876 2053 c-4 -27 -19 -70 -34 -98 -22 -41 -38 -55 -92 -82 -42
-22 -86 -56 -125 -97 -72 -76 -129 -99 -247 -100 -88 -1 -89 -10 -2 -51 30
-14 54 -29 54 -33 0 -5 -13 -21 -30 -37 -58 -56 -26 -104 56 -85 32 8 44 6 64
-9 81 -58 109 -66 240 -66 106 0 133 4 180 23 76 30 149 88 184 146 28 44 31
58 34 152 6 147 -16 175 -157 204 l-76 15 -1 43 c-1 45 -23 122 -34 122 -4 0
-10 -21 -14 -47z m188 -227 c40 -17 76 -53 76 -78 0 -22 -23 -24 -41 -2 -69
83 -219 35 -219 -71 0 -34 16 -64 49 -92 25 -22 26 -23 7 -38 -61 -47 -223
-77 -330 -61 -35 6 -46 11 -46 25 0 10 6 24 14 30 7 6 16 24 19 40 5 23 15 32
44 42 24 8 72 46 138 110 56 55 111 99 125 102 53 10 132 6 164 -7z"/>
<path d="M8736 2070 c-36 -11 -76 -48 -76 -70 0 -23 31 -49 73 -61 36 -10 36
-10 34 -64 -2 -49 1 -58 28 -85 39 -38 90 -48 137 -26 74 35 87 120 29 180
-21 22 -30 40 -28 60 3 42 -38 69 -110 73 -32 1 -71 -2 -87 -7z"/>
<path d="M4402 2043 c-38 -19 -80 -65 -88 -98 -14 -57 57 -121 125 -111 52 8
172 57 178 73 3 7 -2 22 -11 32 -9 10 -16 25 -16 35 0 70 -106 110 -188 69z"/>
<path d="M7965 2049 c-47 -27 -58 -75 -30 -129 34 -65 136 -111 200 -90 45 15
56 31 58 86 2 47 2 47 46 58 59 15 75 40 41 68 -22 18 -34 19 -105 14 -44 -3
-84 -6 -90 -7 -5 0 -30 2 -55 5 -27 4 -53 2 -65 -5z"/>
<path d="M9632 2014 c-77 -38 -115 -103 -77 -134 25 -21 102 -14 160 15 61 29
95 66 95 101 0 50 -94 60 -178 18z"/>
<path d="M3460 1972 c-45 -25 -74 -81 -66 -127 9 -45 57 -93 104 -101 20 -4
41 -9 45 -11 4 -3 -10 -25 -33 -49 -58 -63 -55 -127 9 -154 62 -25 148 17 177
87 20 47 -2 101 -46 109 -44 9 -46 20 -11 60 55 62 41 140 -32 184 -40 25
-102 25 -147 2z"/>
<path d="M1135 1953 c-95 -24 -122 -148 -45 -203 44 -31 121 -28 161 8 64 57
45 154 -37 188 -34 14 -45 15 -79 7z"/>
<path d="M4985 1876 c-63 -29 -115 -80 -115 -112 0 -21 5 -24 34 -24 65 0 156
51 182 103 32 60 -13 75 -101 33z"/>
<path d="M11315 1850 c-32 -13 -47 -36 -43 -71 10 -105 248 -113 248 -7 0 31
-27 64 -66 78 -30 12 -111 12 -139 0z"/>
<path d="M3015 1821 c-51 -14 -80 -28 -95 -46 -12 -14 -10 -19 9 -38 19 -19
32 -22 114 -22 72 0 101 4 132 20 50 25 58 56 18 74 -35 16 -138 23 -178 12z"/>
<path d="M2657 1766 c-86 -31 -149 -98 -119 -128 28 -28 175 29 215 84 38 51
-13 73 -96 44z"/>
<path d="M4508 1631 c-43 -38 -44 -88 -3 -131 24 -25 36 -30 78 -30 40 0 53 5
78 29 92 92 -55 220 -153 132z"/>
<path d="M9455 1585 c-52 -51 -20 -139 55 -151 30 -5 43 -14 62 -43 14 -22 43
-46 77 -63 139 -71 259 5 170 107 -40 46 -80 66 -144 74 -44 5 -52 10 -66 40
-21 45 -45 61 -91 61 -28 0 -46 -7 -63 -25z"/>
<path d="M11400 1603 c-82 -32 -58 -135 39 -164 78 -23 145 38 110 99 -28 50
-104 83 -149 65z"/>
<path d="M7515 1568 c-47 -25 -56 -57 -25 -88 44 -44 150 -8 150 51 0 5 -9 18
-20 29 -22 22 -73 26 -105 8z"/>
<path d="M10120 1555 c-36 -44 112 -101 154 -60 20 20 11 42 -25 60 -37 20
-113 19 -129 0z"/>
<path d="M6048 1513 c-74 -47 -58 -165 27 -193 116 -38 206 83 127 171 -23 26
-38 32 -78 36 -35 2 -57 -1 -76 -14z"/>
<path d="M7205 1506 c-48 -21 -70 -53 -70 -101 0 -94 116 -154 212 -108 40 19
73 66 73 103 0 87 -121 147 -215 106z"/>
<path d="M2954 1500 c-27 -11 -54 -48 -54 -75 0 -34 36 -81 75 -99 48 -23 113
-16 137 14 66 81 -55 202 -158 160z"/>
<path d="M3596 1489 c-33 -26 -33 -59 0 -99 38 -45 94 -70 156 -70 104 0 132
61 60 129 -63 60 -166 79 -216 40z"/>
<path d="M5110 1493 c-26 -10 -60 -46 -60 -64 0 -48 114 -28 138 25 17 38 -24
59 -78 39z"/>
<path d="M5500 1442 c-49 -26 -75 -81 -60 -127 23 -68 92 -103 187 -92 58 6
94 33 112 84 13 37 13 43 -5 73 -31 54 -66 74 -137 78 -47 2 -71 -1 -97 -16z"/>
<path d="M1776 1425 c-35 -32 -34 -69 3 -106 39 -38 87 -39 131 -3 l31 27 48
-27 c63 -34 150 -37 181 -6 26 26 25 41 -2 75 -45 57 -151 82 -207 49 -25 -15
-30 -15 -59 0 -46 24 -94 20 -126 -9z"/>
<path d="M4795 1428 c-64 -37 -60 -122 10 -180 29 -24 98 -41 134 -33 108 23
117 141 16 200 -46 27 -124 34 -160 13z"/>
<path d="M4450 1423 c-59 -23 -68 -86 -19 -127 39 -33 72 -41 118 -30 69 17
75 89 11 136 -27 20 -85 31 -110 21z"/>
<path d="M641 1328 c-46 -23 -83 -71 -79 -103 5 -32 50 -48 100 -34 53 14 118
76 118 112 0 50 -66 62 -139 25z"/>
<path d="M1450 1335 c-102 -46 -141 -146 -81 -206 23 -23 38 -29 72 -29 128 0
226 135 156 215 -29 34 -96 43 -147 20z"/>
<path d="M6685 1334 c-100 -51 -79 -154 32 -154 75 0 133 44 133 101 0 59 -95
90 -165 53z"/>
<path d="M10615 1311 c62 -106 203 -216 341 -263 154 -53 262 -54 506 -4 243
50 357 45 464 -20 31 -19 58 -34 60 -34 9 0 -60 126 -75 138 -38 31 -137 71
-191 77 -52 6 -61 11 -89 45 -34 43 -76 57 -136 46 -42 -8 -91 -55 -100 -96
-8 -38 -22 -45 -112 -59 -245 -38 -423 12 -663 186 l-24 18 19 -34z"/>
<path d="M2622 1305 c-38 -31 -47 -67 -28 -104 17 -32 34 -41 78 -41 41 0 98
57 98 97 0 68 -90 97 -148 48z"/>
<path d="M10145 1313 c-77 -40 -108 -100 -64 -123 33 -18 115 6 160 48 40 35
48 59 27 80 -17 17 -87 14 -123 -5z"/>
<path d="M3432 1244 c-75 -37 -116 -96 -77 -111 44 -16 196 84 182 120 -9 24
-45 21 -105 -9z"/>
<path d="M10410 1251 c-75 -23 -130 -68 -130 -106 0 -44 59 -56 148 -30 95 28
155 107 103 135 -22 11 -84 12 -121 1z"/>
<path d="M9721 1201 c-25 -16 2 -56 56 -82 35 -18 65 -24 113 -24 62 0 65 1
65 24 0 51 -185 116 -234 82z"/>
<path d="M3635 1180 c-46 -19 -82 -81 -70 -120 8 -24 54 -50 90 -50 41 0 95
30 116 64 25 41 24 62 -6 91 -18 19 -34 25 -67 24 -24 0 -52 -4 -63 -9z"/>
<path d="M6240 1167 c-14 -7 -26 -23 -28 -35 -3 -18 4 -26 32 -37 83 -35 209
-6 180 42 -23 37 -134 56 -184 30z"/>
<path d="M4163 1071 c-134 -62 -89 -241 61 -241 58 0 101 21 126 63 68 111
-62 236 -187 178z"/>
<path d="M6660 971 c-69 -21 -127 -68 -117 -96 16 -40 181 6 208 58 20 37 -28
57 -91 38z"/>
<path d="M219 941 c-23 -23 -29 -38 -29 -71 0 -36 6 -47 38 -76 20 -19 43 -40
50 -47 7 -7 25 -27 39 -46 48 -60 127 -78 193 -42 134 71 90 260 -60 261 -30
1 -58 9 -85 25 -56 35 -108 33 -146 -4z"/>
<path d="M11620 949 c-44 -18 -70 -50 -70 -85 0 -68 83 -101 163 -66 50 22 59
32 66 81 5 31 11 35 49 45 53 13 56 32 4 29 -83 -5 -99 -5 -142 1 -25 3 -56 1
-70 -5z"/>
<path d="M7753 916 c-32 -29 -38 -41 -38 -74 0 -29 7 -48 24 -66 86 -91 253
13 197 122 -21 40 -44 52 -100 52 -39 0 -52 -6 -83 -34z"/>
<path d="M10050 900 c-22 -14 2 -33 40 -33 38 0 62 19 40 33 -8 5 -26 10 -40
10 -14 0 -32 -5 -40 -10z"/>
<path d="M3330 893 c-8 -3 -27 -17 -42 -31 -21 -20 -28 -35 -28 -65 0 -49 13
-73 50 -92 111 -58 226 80 136 164 -24 23 -87 36 -116 24z"/>
<path d="M8785 826 c-95 -42 -97 -159 -3 -216 23 -14 51 -20 92 -20 53 0 61 3
92 34 27 27 34 42 34 73 0 100 -119 172 -215 129z"/>
<path d="M12123 750 c-40 -24 -53 -48 -53 -98 0 -98 129 -138 194 -61 82 97
-33 226 -141 159z"/>
<path d="M3909 750 c-25 -4 -60 -15 -77 -24 -17 -9 -54 -16 -82 -16 -41 0 -56
-5 -75 -25 -33 -32 -31 -61 5 -95 59 -55 170 -61 224 -12 12 11 41 22 66 24
90 10 145 54 127 102 -14 36 -108 59 -188 46z"/>
<path d="M4923 470 c-81 -49 -42 -143 52 -126 44 9 95 54 95 85 0 56 -84 80
-147 41z"/>
<path d="M2400 445 c-26 -8 -57 -26 -70 -40 -22 -23 -23 -27 -8 -41 35 -36
182 -2 212 48 23 39 -56 58 -134 33z"/>
<path d="M10335 450 c-23 -38 102 -135 167 -128 43 4 45 20 8 61 -50 57 -156
98 -175 67z"/>
<path d="M6010 443 c-56 -21 -79 -92 -42 -126 30 -27 94 -22 126 9 30 31 33
63 9 93 -19 22 -67 34 -93 24z"/>
<path d="M8406 410 c-39 -12 -76 -49 -76 -75 0 -58 117 -83 177 -38 34 25 42
72 16 95 -23 21 -80 29 -117 18z"/>
<path d="M7337 355 c-78 -27 -113 -90 -64 -117 31 -17 125 -13 172 6 81 34
113 96 59 116 -36 14 -122 12 -167 -5z"/>
<path d="M9074 246 c-90 -90 12 -203 121 -136 89 55 60 170 -43 170 -37 0 -50
-6 -78 -34z"/>
<path d="M4195 170 c-25 -40 115 -130 200 -130 43 0 50 22 19 59 -49 59 -197
106 -219 71z"/>
<path d="M11404 36 c-62 -27 -50 -36 51 -36 102 0 114 9 49 36 -41 17 -60 17
-100 0z"/>
</g>
</svg>
